<?xml version="1.0" encoding="UTF-8"?>
<svg id="Layer_1" xmlns="http://www.w3.org/2000/svg" viewBox="0 0 128 128" preserveAspectRatio="xMidYMid meet">
  <defs>
    <linearGradient id="archiveOrderOrangeGradient" x1="0%" y1="0%" x2="100%" y2="100%">
      <stop offset="0%" stop-color="#FFB000"/>
      <stop offset="55%" stop-color="#FF7A00"/>
      <stop offset="100%" stop-color="#FF3D00"/>
    </linearGradient>
  </defs>
  <path fill="url(#archiveOrderOrangeGradient)" d="M115.978,38.895l-15.907,9.819-24.264,15.104c-1.545,1.069-3.313,1.599-5.095,1.104-1.596-.443-2.427-1.75-2.427-3.405l.004-58.103c0-1.467,1.396-2.331,2.654-2.243,1.661.116,2.952.762,4.334,1.599l16.964,10.266,23.029,13.576c1.819,1.072,3.092,2.39,3.583,4.5.682,2.928-.385,5.806-2.877,7.783Z"/>
  <path fill="url(#archiveOrderOrangeGradient)" d="M39.276,54.499l-24.545-14.704c-1.165-.698-2.166-1.295-3.13-2.205-1.179-1.114-2.068-2.584-2.161-4.259-.13-2.363,1.081-4.297,3.017-5.643L55.207,2.151c1.096-.522,2.017-.864,3.225-.982,1.17-.114,2.603.706,2.603,2.088l.003,58.948c0,1.841-1.783,3.041-3.389,2.875-.984-.101-1.911-.339-2.725-.846l-15.647-9.737Z"/>
  <path fill="url(#archiveOrderOrangeGradient)" d="M60.927,124.165c0,1.326-1.057,2.259-2.214,2.341-.831.059-1.828-.126-2.538-.587l-7.503-4.873-33.285-20.962c-3.232-2.036-5.982-5.27-5.993-9.225l-.048-18.438c1.421,3.052,2.486,6.713,5.388,8.546l41.64,26.293c2.631,1.661,4.559,3.927,4.557,7.244l-.005,9.662Z"/>
  <path fill="url(#archiveOrderOrangeGradient)" d="M68.853,124.332l-.035-10.025c-.011-3.133,1.845-5.329,4.325-6.898l41.489-26.261c1.827-1.156,2.973-3.195,3.763-5.059l1.457-3.439-.041,18.486c-.008,3.45-2.178,6.849-5.073,8.698l-41.006,26.191c-.699.447-1.589.565-2.393.575-1.156.015-2.482-.894-2.486-2.269Z"/>
  <path fill="url(#archiveOrderOrangeGradient)" d="M60.969,94.006c.007,1.412-.941,2.467-2.288,2.506-1.019.03-1.967-.444-2.855-1.038l-15.274-10.197-26.018-16.293c-2.232-1.397-5.158-5.895-5.164-8.936l-.035-16.545,2.009,4.32c1.041,2.24,2.84,3.506,4.907,4.777l35.512,21.837,4.649,2.859c2.404,1.478,4.496,3.77,4.51,6.796l.047,9.913Z"/>
  <path fill="url(#archiveOrderOrangeGradient)" d="M71.26,96.544c-1.528.105-2.471-1.119-2.465-2.449l.045-10.194c.012-2.715,1.806-4.841,3.988-6.194l41.58-25.796c1.861-1.154,3.086-2.964,3.952-4.898l1.499-3.346-.045,15.897c-.011,3.854-2.239,7.232-5.047,9.742l-28.314,17.916-13.08,8.679c-.539.357-1.418.595-2.113.643Z"/>
</svg>
