<?xml version="1.0" encoding="UTF-8"?><svg xmlns="http://www.w3.org/2000/svg" width="2175.135mm" height="256mm" xmlns:xlink="http://www.w3.org/1999/xlink" viewBox="0 0 6165.738 725.669"><defs><linearGradient id="linear-gradient" x1="5.965" y1="724.961" x2="11.338" y2="719.589" gradientTransform="translate(18.5151 46424.7899) scale(50.7699 -63.9439)" gradientUnits="userSpaceOnUse"><stop offset="0" stop-color="#fcb017"/><stop offset=".55" stop-color="#f47a20"/><stop offset="1" stop-color="#ef4523"/></linearGradient><linearGradient id="linear-gradient-2" x1="2.058" y1="726.13" x2="7.43" y2="720.758" gradientTransform="translate(-41.177 46419.6212) scale(51.6075 -63.9368)" xlink:href="#linear-gradient"/><linearGradient id="linear-gradient-3" x1="1.276" y1="719.509" x2="6.648" y2="714.137" gradientTransform="translate(-41.239 39346.1879) scale(51.585 -54.0956)" xlink:href="#linear-gradient"/><linearGradient id="linear-gradient-4" x1="6.586" y1="719.684" x2="11.958" y2="714.312" gradientTransform="translate(18.784 39240.6785) scale(51.034 -53.95)" xlink:href="#linear-gradient"/><linearGradient id="linear-gradient-5" x1="1.314" y1="721.804" x2="6.686" y2="716.432" gradientTransform="translate(-41.299 38529.35) scale(51.634 -53.0104)" xlink:href="#linear-gradient"/><linearGradient id="linear-gradient-6" x1="6.579" y1="721.95" x2="11.951" y2="716.578" gradientTransform="translate(18.7309 38437.2713) scale(51.064 -52.8833)" xlink:href="#linear-gradient"/><linearGradient id="linear-gradient-7" x1="2.058" y1="726.13" x2="7.43" y2="720.758" gradientTransform="translate(-41.177 46419.6212) scale(51.6075 -63.9368)" xlink:href="#linear-gradient"/><linearGradient id="linear-gradient-8" x1="1.276" y1="719.509" x2="6.648" y2="714.137" gradientTransform="translate(-41.239 39346.1879) scale(51.585 -54.0956)" xlink:href="#linear-gradient"/><linearGradient id="linear-gradient-9" x1="6.586" y1="719.684" x2="11.958" y2="714.312" gradientTransform="translate(18.784 39240.6785) scale(51.034 -53.95)" xlink:href="#linear-gradient"/><linearGradient id="linear-gradient-10" x1="1.314" y1="721.804" x2="6.686" y2="716.432" gradientTransform="translate(-41.299 38529.35) scale(51.634 -53.0104)" xlink:href="#linear-gradient"/><linearGradient id="linear-gradient-11" x1="6.579" y1="721.95" x2="11.951" y2="716.578" gradientTransform="translate(18.7309 38437.2713) scale(51.064 -52.8833)" xlink:href="#linear-gradient"/><filter id="luminosity-noclip" x="-8.504" y="-8.504" width="2284.724" height="742.677" color-interpolation-filters="sRGB" filterUnits="userSpaceOnUse"><feFlood flood-color="#fff" result="bg"/><feBlend in="SourceGraphic" in2="bg"/></filter><linearGradient id="linear-gradient-12" x1="0" y1="362.835" x2="2267.717" y2="362.835" gradientUnits="userSpaceOnUse"><stop offset="0" stop-color="#fff"/><stop offset="0" stop-color="#f5f5f5"/><stop offset="0" stop-color="#c7c7c7"/><stop offset=".002" stop-color="#9c9c9c"/><stop offset=".003" stop-color="#777"/><stop offset=".004" stop-color="#565656"/><stop offset=".005" stop-color="#3b3b3b"/><stop offset=".007" stop-color="#252525"/><stop offset=".008" stop-color="#141414"/><stop offset=".01" stop-color="#080808"/><stop offset=".013" stop-color="#010101"/><stop offset=".021" stop-color="#000"/><stop offset=".979" stop-color="#000"/><stop offset=".987" stop-color="#010101"/><stop offset=".99" stop-color="#080808"/><stop offset=".992" stop-color="#141414"/><stop offset=".993" stop-color="#252525"/><stop offset=".995" stop-color="#3b3b3b"/><stop offset=".996" stop-color="#565656"/><stop offset=".997" stop-color="#777"/><stop offset=".998" stop-color="#9c9c9c"/><stop offset=".999" stop-color="#c7c7c7"/><stop offset="1" stop-color="#f5f5f5"/><stop offset="1" stop-color="#fff"/></linearGradient><linearGradient id="linear-gradient-13" x1="1133.858" y1="0" x2="1133.858" y2="725.669" gradientUnits="userSpaceOnUse"><stop offset="0" stop-color="#fff"/><stop offset="0" stop-color="#f5f5f5"/><stop offset=".003" stop-color="#c7c7c7"/><stop offset=".005" stop-color="#9c9c9c"/><stop offset=".007" stop-color="#777"/><stop offset=".01" stop-color="#565656"/><stop offset=".013" stop-color="#3b3b3b"/><stop offset=".017" stop-color="#252525"/><stop offset=".021" stop-color="#141414"/><stop offset=".026" stop-color="#080808"/><stop offset=".033" stop-color="#010101"/><stop offset=".053" stop-color="#000"/><stop offset=".947" stop-color="#000"/><stop offset=".967" stop-color="#010101"/><stop offset=".974" stop-color="#080808"/><stop offset=".979" stop-color="#141414"/><stop offset=".983" stop-color="#252525"/><stop offset=".987" stop-color="#3b3b3b"/><stop offset=".99" stop-color="#565656"/><stop offset=".993" stop-color="#777"/><stop offset=".995" stop-color="#9c9c9c"/><stop offset=".997" stop-color="#c7c7c7"/><stop offset="1" stop-color="#f5f5f5"/><stop offset="1" stop-color="#fff"/></linearGradient><mask id="mask" x="-8.504" y="-8.504" width="2284.724" height="742.677" maskUnits="userSpaceOnUse"><g filter="url(#luminosity-noclip)"><rect x="-8.504" y="-8.504" width="2284.724" height="742.677" fill="#fff"/><rect x="0" y="1.814" width="2267.717" height="722.041" fill="url(#linear-gradient-12)"/><rect x="5.669" y="0" width="2256.378" height="725.669" fill="url(#linear-gradient-13)" mix-blend-mode="screen"/></g></mask><linearGradient id="linear-gradient-14" x1="228.316" y1="533.48" x2="502.475" y2="823.303" gradientUnits="userSpaceOnUse"><stop offset="0" stop-color="#fcb017"/><stop offset=".55" stop-color="#f47a20"/><stop offset="1" stop-color="#ef4523"/></linearGradient><linearGradient id="linear-gradient-15" x1="5.505" y1="286.082" x2="283.222" y2="571.202" gradientUnits="userSpaceOnUse"><stop offset="0" stop-color="#fab152"/><stop offset=".001" stop-color="#fcb017"/><stop offset=".551" stop-color="#f47a20"/><stop offset="1" stop-color="#ef4523"/></linearGradient><linearGradient id="linear-gradient-16" x1="30.265" y1="416.804" x2="308.211" y2="708.278" gradientUnits="userSpaceOnUse"><stop offset="0" stop-color="#fdc65a"/><stop offset=".003" stop-color="#fcb017"/><stop offset=".551" stop-color="#f47a20"/><stop offset="1" stop-color="#ef4523"/></linearGradient><linearGradient id="linear-gradient-17" x1="3.227" y1="442.587" x2="281.173" y2="734.061" xlink:href="#linear-gradient-16"/><linearGradient id="linear-gradient-18" x1="-48.353" y1="84.724" x2="228.886" y2="428.198" gradientUnits="userSpaceOnUse"><stop offset="0" stop-color="#fcb017"/><stop offset=".55" stop-color="#f47a20"/><stop offset="1" stop-color="#ef4523"/></linearGradient><linearGradient id="linear-gradient-19" x1="360.512" y1="28.967" x2="637.104" y2="377.33" gradientUnits="userSpaceOnUse"><stop offset="0" stop-color="#fbaa19"/><stop offset=".014" stop-color="#fcb017"/><stop offset=".556" stop-color="#f47a20"/><stop offset="1" stop-color="#ef4523"/></linearGradient><linearGradient id="linear-gradient-20" x1="182.243" y1="-101.404" x2="459.482" y2="242.069" xlink:href="#linear-gradient-18"/></defs><rect x="-8.504" y="-8.504" width="6182.745" height="742.677" fill="#fff"/><g id="Layer_1"><path d="M606.372,234.387l-85.454,52.748-130.348,81.14c-8.3,5.743-17.798,8.59-27.371,5.931-8.574-2.38-13.038-9.401-13.038-18.292l.021-312.134c0-7.881,7.499-12.522,14.257-12.05,8.923.623,15.858,4.094,23.283,8.59l91.132,55.15,123.714,72.931c9.772,5.759,16.61,12.839,19.248,24.174,3.664,15.729-2.068,31.19-15.455,41.811h.011Z" fill="url(#linear-gradient)"/><path d="M194.323,318.213L62.465,239.222c-6.258-3.75-11.636-6.957-16.815-11.845-6.334-5.984-11.109-13.881-11.609-22.88-.698-12.694,5.807-23.084,16.208-30.315L279.906,36.995c5.888-2.804,10.835-4.641,17.325-5.275,6.285-.612,13.984,3.793,13.984,11.217l.016,316.673c0,9.89-9.578,16.336-18.206,15.445-5.286-.543-10.266-1.821-14.639-4.545l-84.057-52.308-.005.011Z" fill="url(#linear-gradient-2)"/><path d="M310.634,692.464c0,7.123-5.678,12.136-11.894,12.576-4.464.317-9.82-.677-13.634-3.153l-40.307-26.178-178.81-112.609c-17.363-10.938-32.136-28.311-32.195-49.557l-.258-99.05c7.634,16.396,13.355,36.063,28.945,45.91l223.693,141.248c14.134,8.923,24.491,21.096,24.481,38.915l-.027,51.905.005-.005Z" fill="url(#linear-gradient-3)"/><path d="M353.213,693.361l-.188-53.855c-.059-16.831,9.911-28.628,23.234-37.057l222.882-141.076c9.815-6.21,15.971-17.164,20.215-27.177l7.827-18.475-.22,99.308c-.043,18.534-11.7,36.793-27.253,46.726l-220.287,140.7c-3.755,2.401-8.536,3.035-12.855,3.089-6.21.081-13.334-4.803-13.355-12.189v.005Z" fill="url(#linear-gradient-4)"/><path d="M310.859,530.447c.038,7.585-5.055,13.253-12.291,13.462-5.474.161-10.567-2.385-15.337-5.576l-82.053-54.779-139.771-87.527c-11.99-7.505-27.709-31.668-27.741-48.005l-.188-88.881,10.792,23.207c5.592,12.033,15.257,18.834,26.361,25.662l190.773,117.31,24.975,15.359c12.914,7.94,24.153,20.253,24.228,36.509l.252,53.253v.005Z" fill="url(#linear-gradient-5)"/><path d="M366.144,544.081c-8.209.564-13.274-6.011-13.242-13.156l.242-54.763c.064-14.585,9.702-26.006,21.424-33.275l223.371-138.578c9.997-6.199,16.578-15.923,21.23-26.312l8.053-17.975-.242,85.4c-.059,20.704-12.028,38.851-27.113,52.335l-152.105,96.246-70.267,46.624c-2.896,1.918-7.618,3.196-11.351,3.454h0Z" fill="url(#linear-gradient-6)"/><rect x="681.217" y="167.156" width="5759.512" height="494.67" fill="none"/><path d="M767.317,339.349c14.35,0,25.831,11.48,25.831,25.83s-11.48,25.83-25.831,25.83-25.83-11.479-25.83-25.83,11.48-25.83,25.83-25.83ZM767.317,396.749c14.35,0,25.831,11.48,25.831,25.83s-11.48,25.831-25.831,25.831-25.83-11.48-25.83-25.831,11.48-25.83,25.83-25.83ZM767.317,454.15c14.35,0,25.831,11.479,25.831,25.83s-11.48,25.83-25.831,25.83-25.83-11.48-25.83-25.83,11.48-25.83,25.83-25.83ZM767.317,511.551c14.35,0,25.831,11.479,25.831,25.83s-11.48,25.83-25.831,25.83-25.83-11.48-25.83-25.83,11.48-25.83,25.83-25.83ZM767.317,293.429c8.036,0,14.35,6.314,14.35,14.35s-6.314,14.35-14.35,14.35-14.35-6.314-14.35-14.35,6.314-14.35,14.35-14.35ZM824.718,281.949c14.35,0,25.83,11.48,25.83,25.83s-11.48,25.83-25.83,25.83-25.831-11.48-25.831-25.83,11.48-25.83,25.831-25.83ZM824.718,339.349c14.35,0,25.83,11.48,25.83,25.83s-11.48,25.83-25.83,25.83-25.831-11.479-25.831-25.83,11.48-25.83,25.831-25.83ZM824.718,396.749c14.35,0,25.83,11.48,25.83,25.83s-11.48,25.831-25.83,25.831-25.831-11.48-25.831-25.831,11.48-25.83,25.831-25.83ZM824.718,454.15c14.35,0,25.83,11.479,25.83,25.83s-11.48,25.83-25.83,25.83-25.831-11.48-25.831-25.83,11.48-25.83,25.831-25.83ZM824.718,511.551c14.35,0,25.83,11.479,25.83,25.83s-11.48,25.83-25.83,25.83-25.831-11.48-25.831-25.83,11.48-25.83,25.831-25.83ZM824.718,236.028c8.036,0,14.35,6.314,14.35,14.35s-6.314,14.35-14.35,14.35-14.35-6.314-14.35-14.35,6.314-14.35,14.35-14.35ZM882.119,224.548c14.35,0,25.83,11.48,25.83,25.831s-11.48,25.83-25.83,25.83-25.83-11.48-25.83-25.83,11.48-25.831,25.83-25.831ZM882.119,396.749c14.35,0,25.83,11.48,25.83,25.83s-11.48,25.831-25.83,25.831-25.83-11.48-25.83-25.831,11.48-25.83,25.83-25.83ZM882.119,178.627c8.036,0,14.35,6.314,14.35,14.35s-6.314,14.35-14.35,14.35-14.35-6.314-14.35-14.35,6.314-14.35,14.35-14.35ZM882.119,293.429c8.036,0,14.35,6.314,14.35,14.35s-6.314,14.35-14.35,14.35-14.35-6.314-14.35-14.35,6.314-14.35,14.35-14.35ZM939.519,167.147c14.35,0,25.83,11.48,25.83,25.83s-11.48,25.831-25.83,25.831-25.83-11.48-25.83-25.831,11.48-25.83,25.83-25.83ZM939.519,396.749c14.35,0,25.83,11.48,25.83,25.83s-11.48,25.831-25.83,25.831-25.83-11.48-25.83-25.831,11.48-25.83,25.83-25.83ZM939.519,236.028c8.036,0,14.35,6.314,14.35,14.35s-6.314,14.35-14.35,14.35-14.35-6.314-14.35-14.35,6.314-14.35,14.35-14.35ZM996.919,224.548c14.35,0,25.831,11.48,25.831,25.831s-11.48,25.83-25.831,25.83-25.83-11.48-25.83-25.83,11.48-25.831,25.83-25.831ZM996.919,396.749c14.35,0,25.831,11.48,25.831,25.83s-11.48,25.831-25.831,25.831-25.83-11.48-25.83-25.831,11.48-25.83,25.83-25.83ZM996.919,178.627c8.036,0,14.35,6.314,14.35,14.35s-6.314,14.35-14.35,14.35-14.35-6.314-14.35-14.35,6.314-14.35,14.35-14.35ZM996.919,293.429c8.036,0,14.35,6.314,14.35,14.35s-6.314,14.35-14.35,14.35-14.35-6.314-14.35-14.35,6.314-14.35,14.35-14.35ZM1054.32,281.949c14.35,0,25.83,11.48,25.83,25.83s-11.48,25.83-25.83,25.83-25.831-11.48-25.831-25.83,11.48-25.83,25.831-25.83ZM1054.32,339.349c14.35,0,25.83,11.48,25.83,25.83s-11.48,25.83-25.83,25.83-25.831-11.479-25.831-25.83,11.48-25.83,25.831-25.83ZM1054.32,396.749c14.35,0,25.83,11.48,25.83,25.83s-11.48,25.831-25.83,25.831-25.831-11.48-25.831-25.831,11.48-25.83,25.831-25.83ZM1054.32,454.15c14.35,0,25.83,11.479,25.83,25.83s-11.48,25.83-25.83,25.83-25.831-11.48-25.831-25.83,11.48-25.83,25.831-25.83ZM1054.32,511.551c14.35,0,25.83,11.479,25.83,25.83s-11.48,25.83-25.83,25.83-25.831-11.48-25.831-25.83,11.48-25.83,25.831-25.83ZM1054.32,236.028c8.036,0,14.35,6.314,14.35,14.35s-6.313,14.35-14.35,14.35-14.35-6.314-14.35-14.35,6.314-14.35,14.35-14.35ZM1111.721,339.349c14.35,0,25.83,11.48,25.83,25.83s-11.48,25.83-25.83,25.83-25.83-11.479-25.83-25.83,11.479-25.83,25.83-25.83ZM1111.721,396.749c14.35,0,25.83,11.48,25.83,25.83s-11.48,25.831-25.83,25.831-25.83-11.48-25.83-25.831,11.479-25.83,25.83-25.83ZM1111.721,454.15c14.35,0,25.83,11.479,25.83,25.83s-11.48,25.83-25.83,25.83-25.83-11.48-25.83-25.83,11.479-25.83,25.83-25.83ZM1111.721,511.551c14.35,0,25.83,11.479,25.83,25.83s-11.48,25.83-25.83,25.83-25.83-11.48-25.83-25.83,11.479-25.83,25.83-25.83ZM1111.721,293.429c8.036,0,14.35,6.314,14.35,14.35s-6.313,14.35-14.35,14.35-14.351-6.314-14.351-14.35,6.314-14.35,14.351-14.35Z" fill="#231f20"/><path d="M1214.46,281.949c14.351,0,25.83,11.48,25.83,25.83s-11.479,25.83-25.83,25.83-25.83-11.48-25.83-25.83,11.48-25.83,25.83-25.83ZM1214.46,511.551c14.351,0,25.83,11.479,25.83,25.83s-11.479,25.83-25.83,25.83-25.83-11.48-25.83-25.83,11.48-25.83,25.83-25.83ZM1271.86,281.949c14.351,0,25.83,11.48,25.83,25.83s-11.479,25.83-25.83,25.83-25.83-11.48-25.83-25.83,11.48-25.83,25.83-25.83ZM1271.86,511.551c14.351,0,25.83,11.479,25.83,25.83s-11.479,25.83-25.83,25.83-25.83-11.48-25.83-25.83,11.48-25.83,25.83-25.83ZM1329.261,281.949c14.351,0,25.831,11.48,25.831,25.83s-11.48,25.83-25.831,25.83-25.83-11.48-25.83-25.83,11.48-25.83,25.83-25.83ZM1329.261,339.349c14.351,0,25.831,11.48,25.831,25.83s-11.48,25.83-25.831,25.83-25.83-11.479-25.83-25.83,11.48-25.83,25.83-25.83ZM1329.261,396.749c14.351,0,25.831,11.48,25.831,25.83s-11.48,25.831-25.831,25.831-25.83-11.48-25.83-25.831,11.48-25.83,25.83-25.83ZM1329.261,454.15c14.351,0,25.831,11.479,25.831,25.83s-11.48,25.83-25.831,25.83-25.83-11.48-25.83-25.83,11.48-25.83,25.83-25.83ZM1329.261,511.551c14.351,0,25.831,11.479,25.831,25.83s-11.48,25.83-25.831,25.83-25.83-11.48-25.83-25.83,11.48-25.83,25.83-25.83ZM1386.662,339.349c14.35,0,25.83,11.48,25.83,25.83s-11.48,25.83-25.83,25.83-25.831-11.479-25.831-25.83,11.48-25.83,25.831-25.83ZM1386.662,396.749c14.35,0,25.83,11.48,25.83,25.83s-11.48,25.831-25.83,25.831-25.831-11.48-25.831-25.831,11.48-25.83,25.831-25.83ZM1386.662,454.15c14.35,0,25.83,11.479,25.83,25.83s-11.48,25.83-25.83,25.83-25.831-11.48-25.831-25.83,11.48-25.83,25.831-25.83ZM1386.662,511.551c14.35,0,25.83,11.479,25.83,25.83s-11.48,25.83-25.83,25.83-25.831-11.48-25.831-25.83,11.48-25.83,25.831-25.83ZM1386.662,293.429c8.036,0,14.35,6.314,14.35,14.35s-6.313,14.35-14.35,14.35-14.351-6.314-14.351-14.35,6.314-14.35,14.351-14.35ZM1444.062,511.551c14.35,0,25.83,11.479,25.83,25.83s-11.48,25.83-25.83,25.83-25.83-11.48-25.83-25.83,11.479-25.83,25.83-25.83ZM1444.062,293.429c8.036,0,14.35,6.314,14.35,14.35s-6.313,14.35-14.35,14.35-14.351-6.314-14.351-14.35,6.314-14.35,14.351-14.35ZM1501.463,281.949c14.35,0,25.83,11.48,25.83,25.83s-11.48,25.83-25.83,25.83-25.83-11.48-25.83-25.83,11.479-25.83,25.83-25.83ZM1501.463,511.551c14.35,0,25.83,11.479,25.83,25.83s-11.48,25.83-25.83,25.83-25.83-11.48-25.83-25.83,11.479-25.83,25.83-25.83ZM1558.863,293.429c8.036,0,14.35,6.314,14.35,14.35s-6.313,14.35-14.35,14.35-14.351-6.314-14.351-14.35,6.314-14.35,14.351-14.35ZM1558.863,350.829c8.036,0,14.35,6.314,14.35,14.35s-6.313,14.351-14.35,14.351-14.351-6.314-14.351-14.351,6.314-14.35,14.351-14.35Z" fill="#231f20"/><path d="M1661.603,339.349c14.351,0,25.83,11.48,25.83,25.83s-11.479,25.83-25.83,25.83-25.83-11.479-25.83-25.83,11.48-25.83,25.83-25.83ZM1661.603,396.749c14.351,0,25.83,11.48,25.83,25.83s-11.479,25.831-25.83,25.831-25.83-11.48-25.83-25.831,11.48-25.83,25.83-25.83ZM1661.603,454.15c14.351,0,25.83,11.479,25.83,25.83s-11.479,25.83-25.83,25.83-25.83-11.48-25.83-25.83,11.48-25.83,25.83-25.83ZM1661.603,293.429c8.036,0,14.351,6.314,14.351,14.35s-6.314,14.35-14.351,14.35-14.35-6.314-14.35-14.35,6.313-14.35,14.35-14.35ZM1661.603,523.03c8.036,0,14.351,6.314,14.351,14.351s-6.314,14.35-14.351,14.35-14.35-6.313-14.35-14.35,6.313-14.351,14.35-14.351ZM1719.003,281.949c14.351,0,25.83,11.48,25.83,25.83s-11.479,25.83-25.83,25.83-25.83-11.48-25.83-25.83,11.48-25.83,25.83-25.83ZM1719.003,339.349c14.351,0,25.83,11.48,25.83,25.83s-11.479,25.83-25.83,25.83-25.83-11.479-25.83-25.83,11.48-25.83,25.83-25.83ZM1719.003,396.749c14.351,0,25.83,11.48,25.83,25.83s-11.479,25.831-25.83,25.831-25.83-11.48-25.83-25.831,11.48-25.83,25.83-25.83ZM1719.003,454.15c14.351,0,25.83,11.479,25.83,25.83s-11.479,25.83-25.83,25.83-25.83-11.48-25.83-25.83,11.48-25.83,25.83-25.83ZM1719.003,511.551c14.351,0,25.83,11.479,25.83,25.83s-11.479,25.83-25.83,25.83-25.83-11.48-25.83-25.83,11.48-25.83,25.83-25.83ZM1776.403,281.949c14.351,0,25.831,11.48,25.831,25.83s-11.48,25.83-25.831,25.83-25.83-11.48-25.83-25.83,11.48-25.83,25.83-25.83ZM1776.403,511.551c14.351,0,25.831,11.479,25.831,25.83s-11.48,25.83-25.831,25.83-25.83-11.48-25.83-25.83,11.48-25.83,25.83-25.83ZM1833.805,281.949c14.35,0,25.83,11.48,25.83,25.83s-11.48,25.83-25.83,25.83-25.831-11.48-25.831-25.83,11.48-25.83,25.831-25.83ZM1833.805,511.551c14.35,0,25.83,11.479,25.83,25.83s-11.48,25.83-25.83,25.83-25.831-11.48-25.831-25.83,11.48-25.83,25.831-25.83ZM1891.205,281.949c14.35,0,25.83,11.48,25.83,25.83s-11.48,25.83-25.83,25.83-25.83-11.48-25.83-25.83,11.479-25.83,25.83-25.83ZM1891.205,511.551c14.35,0,25.83,11.479,25.83,25.83s-11.48,25.83-25.83,25.83-25.83-11.48-25.83-25.83,11.479-25.83,25.83-25.83ZM1948.605,281.949c14.35,0,25.83,11.48,25.83,25.83s-11.48,25.83-25.83,25.83-25.83-11.48-25.83-25.83,11.479-25.83,25.83-25.83ZM1948.605,511.551c14.35,0,25.83,11.479,25.83,25.83s-11.48,25.83-25.83,25.83-25.83-11.48-25.83-25.83,11.479-25.83,25.83-25.83ZM2006.006,293.429c8.036,0,14.35,6.314,14.35,14.35s-6.313,14.35-14.35,14.35-14.351-6.314-14.351-14.35,6.314-14.35,14.351-14.35ZM2006.006,350.829c8.036,0,14.35,6.314,14.35,14.35s-6.313,14.351-14.35,14.351-14.351-6.314-14.351-14.351,6.314-14.35,14.351-14.35ZM2006.006,465.63c8.036,0,14.35,6.314,14.35,14.351s-6.313,14.35-14.35,14.35-14.351-6.313-14.351-14.35,6.314-14.351,14.351-14.351ZM2006.006,523.03c8.036,0,14.35,6.314,14.35,14.351s-6.313,14.35-14.35,14.35-14.351-6.313-14.351-14.35,6.314-14.351,14.351-14.351Z" fill="#231f20"/><path d="M2108.745,167.147c14.351,0,25.83,11.48,25.83,25.83s-11.479,25.831-25.83,25.831-25.83-11.48-25.83-25.831,11.48-25.83,25.83-25.83ZM2108.745,224.548c14.351,0,25.83,11.48,25.83,25.831s-11.479,25.83-25.83,25.83-25.83-11.48-25.83-25.83,11.48-25.831,25.83-25.831ZM2108.745,281.949c14.351,0,25.83,11.48,25.83,25.83s-11.479,25.83-25.83,25.83-25.83-11.48-25.83-25.83,11.48-25.83,25.83-25.83ZM2108.745,339.349c14.351,0,25.83,11.48,25.83,25.83s-11.479,25.83-25.83,25.83-25.83-11.479-25.83-25.83,11.48-25.83,25.83-25.83ZM2108.745,396.749c14.351,0,25.83,11.48,25.83,25.83s-11.479,25.831-25.83,25.831-25.83-11.48-25.83-25.831,11.48-25.83,25.83-25.83ZM2108.745,454.15c14.351,0,25.83,11.479,25.83,25.83s-11.479,25.83-25.83,25.83-25.83-11.48-25.83-25.83,11.48-25.83,25.83-25.83ZM2108.745,511.551c14.351,0,25.83,11.479,25.83,25.83s-11.479,25.83-25.83,25.83-25.83-11.48-25.83-25.83,11.48-25.83,25.83-25.83ZM2166.146,224.548c14.351,0,25.83,11.48,25.83,25.831s-11.479,25.83-25.83,25.83-25.83-11.48-25.83-25.83,11.48-25.831,25.83-25.831ZM2166.146,281.949c14.351,0,25.83,11.48,25.83,25.83s-11.479,25.83-25.83,25.83-25.83-11.48-25.83-25.83,11.48-25.83,25.83-25.83ZM2166.146,339.349c14.351,0,25.83,11.48,25.83,25.83s-11.479,25.83-25.83,25.83-25.83-11.479-25.83-25.83,11.48-25.83,25.83-25.83ZM2166.146,396.749c14.351,0,25.83,11.48,25.83,25.83s-11.479,25.831-25.83,25.831-25.83-11.48-25.83-25.831,11.48-25.83,25.83-25.83ZM2166.146,454.15c14.351,0,25.83,11.479,25.83,25.83s-11.479,25.83-25.83,25.83-25.83-11.48-25.83-25.83,11.48-25.83,25.83-25.83ZM2166.146,178.627c8.036,0,14.351,6.314,14.351,14.35s-6.314,14.35-14.351,14.35-14.35-6.314-14.35-14.35,6.313-14.35,14.35-14.35ZM2166.146,523.03c8.036,0,14.351,6.314,14.351,14.351s-6.314,14.35-14.351,14.35-14.35-6.313-14.35-14.35,6.313-14.351,14.35-14.351ZM2223.546,293.429c8.036,0,14.351,6.314,14.351,14.35s-6.314,14.35-14.351,14.35-14.35-6.314-14.35-14.35,6.314-14.35,14.35-14.35ZM2280.947,281.949c14.35,0,25.83,11.48,25.83,25.83s-11.48,25.83-25.83,25.83-25.831-11.48-25.831-25.83,11.48-25.83,25.831-25.83ZM2338.348,281.949c14.35,0,25.83,11.48,25.83,25.83s-11.48,25.83-25.83,25.83-25.83-11.48-25.83-25.83,11.479-25.83,25.83-25.83ZM2395.748,281.949c14.35,0,25.83,11.48,25.83,25.83s-11.48,25.83-25.83,25.83-25.83-11.48-25.83-25.83,11.479-25.83,25.83-25.83ZM2395.748,339.349c14.35,0,25.83,11.48,25.83,25.83s-11.48,25.83-25.83,25.83-25.83-11.479-25.83-25.83,11.479-25.83,25.83-25.83ZM2395.748,396.749c14.35,0,25.83,11.48,25.83,25.83s-11.48,25.831-25.83,25.831-25.83-11.48-25.83-25.831,11.479-25.83,25.83-25.83ZM2395.748,454.15c14.35,0,25.83,11.479,25.83,25.83s-11.48,25.83-25.83,25.83-25.83-11.48-25.83-25.83,11.479-25.83,25.83-25.83ZM2395.748,523.03c8.036,0,14.35,6.314,14.35,14.351s-6.313,14.35-14.35,14.35-14.351-6.313-14.351-14.35,6.314-14.351,14.351-14.351ZM2453.148,339.349c14.35,0,25.83,11.48,25.83,25.83s-11.48,25.83-25.83,25.83-25.83-11.479-25.83-25.83,11.479-25.83,25.83-25.83ZM2453.148,396.749c14.35,0,25.83,11.48,25.83,25.83s-11.48,25.831-25.83,25.831-25.83-11.48-25.83-25.831,11.479-25.83,25.83-25.83ZM2453.148,454.15c14.35,0,25.83,11.479,25.83,25.83s-11.48,25.83-25.83,25.83-25.83-11.48-25.83-25.83,11.479-25.83,25.83-25.83ZM2453.148,511.551c14.35,0,25.83,11.479,25.83,25.83s-11.48,25.83-25.83,25.83-25.83-11.48-25.83-25.83,11.479-25.83,25.83-25.83ZM2453.148,293.429c8.036,0,14.35,6.314,14.35,14.35s-6.313,14.35-14.35,14.35-14.351-6.314-14.351-14.35,6.314-14.35,14.351-14.35Z" fill="#231f20"/><path d="M2555.888,511.551c14.351,0,25.83,11.479,25.83,25.83s-11.479,25.83-25.83,25.83-25.83-11.48-25.83-25.83,11.48-25.83,25.83-25.83ZM2613.288,281.949c14.351,0,25.83,11.48,25.83,25.83s-11.479,25.83-25.83,25.83-25.83-11.48-25.83-25.83,11.48-25.83,25.83-25.83ZM2613.288,511.551c14.351,0,25.83,11.479,25.83,25.83s-11.479,25.83-25.83,25.83-25.83-11.48-25.83-25.83,11.48-25.83,25.83-25.83ZM2670.688,281.949c14.351,0,25.831,11.48,25.831,25.83s-11.48,25.83-25.831,25.83-25.83-11.48-25.83-25.83,11.48-25.83,25.83-25.83ZM2670.688,511.551c14.351,0,25.831,11.479,25.831,25.83s-11.48,25.83-25.831,25.83-25.83-11.48-25.83-25.83,11.48-25.83,25.83-25.83ZM2728.09,167.147c14.35,0,25.83,11.48,25.83,25.83s-11.48,25.831-25.83,25.831-25.831-11.48-25.831-25.831,11.48-25.83,25.831-25.83ZM2728.09,281.949c14.35,0,25.83,11.48,25.83,25.83s-11.48,25.83-25.83,25.83-25.831-11.48-25.831-25.83,11.48-25.83,25.831-25.83ZM2728.09,339.349c14.35,0,25.83,11.48,25.83,25.83s-11.48,25.83-25.83,25.83-25.831-11.479-25.831-25.83,11.48-25.83,25.831-25.83ZM2728.09,396.749c14.35,0,25.83,11.48,25.83,25.83s-11.48,25.831-25.83,25.831-25.831-11.48-25.831-25.831,11.48-25.83,25.831-25.83ZM2728.09,454.15c14.35,0,25.83,11.479,25.83,25.83s-11.48,25.83-25.83,25.83-25.831-11.48-25.831-25.83,11.48-25.83,25.831-25.83ZM2728.09,511.551c14.35,0,25.83,11.479,25.83,25.83s-11.48,25.83-25.83,25.83-25.831-11.48-25.831-25.83,11.48-25.83,25.831-25.83ZM2785.49,167.147c14.35,0,25.83,11.48,25.83,25.83s-11.48,25.831-25.83,25.831-25.83-11.48-25.83-25.831,11.479-25.83,25.83-25.83ZM2785.49,339.349c14.35,0,25.83,11.48,25.83,25.83s-11.48,25.83-25.83,25.83-25.83-11.479-25.83-25.83,11.479-25.83,25.83-25.83ZM2785.49,396.749c14.35,0,25.83,11.48,25.83,25.83s-11.48,25.831-25.83,25.831-25.83-11.48-25.83-25.831,11.479-25.83,25.83-25.83ZM2785.49,454.15c14.35,0,25.83,11.479,25.83,25.83s-11.48,25.83-25.83,25.83-25.83-11.48-25.83-25.83,11.479-25.83,25.83-25.83ZM2785.49,511.551c14.35,0,25.83,11.479,25.83,25.83s-11.48,25.83-25.83,25.83-25.83-11.48-25.83-25.83,11.479-25.83,25.83-25.83ZM2785.49,293.429c8.036,0,14.35,6.314,14.35,14.35s-6.313,14.35-14.35,14.35-14.351-6.314-14.351-14.35,6.314-14.35,14.351-14.35ZM2842.891,511.551c14.35,0,25.83,11.479,25.83,25.83s-11.48,25.83-25.83,25.83-25.83-11.48-25.83-25.83,11.479-25.83,25.83-25.83ZM2900.291,511.551c14.35,0,25.83,11.479,25.83,25.83s-11.48,25.83-25.83,25.83-25.83-11.48-25.83-25.83,11.479-25.83,25.83-25.83Z" fill="#231f20"/><path d="M3003.03,339.349c14.351,0,25.83,11.48,25.83,25.83s-11.479,25.83-25.83,25.83-25.83-11.479-25.83-25.83,11.48-25.83,25.83-25.83ZM3003.03,293.429c8.036,0,14.351,6.314,14.351,14.35s-6.314,14.35-14.351,14.35-14.35-6.314-14.35-14.35,6.313-14.35,14.35-14.35ZM3003.03,408.229c8.036,0,14.351,6.314,14.351,14.35s-6.314,14.351-14.351,14.351-14.35-6.314-14.35-14.351,6.313-14.35,14.35-14.35ZM3060.431,396.749c14.351,0,25.83,11.48,25.83,25.83s-11.479,25.831-25.83,25.831-25.83-11.48-25.83-25.831,11.48-25.83,25.83-25.83ZM3060.431,350.829c8.036,0,14.351,6.314,14.351,14.35s-6.314,14.351-14.351,14.351-14.35-6.314-14.35-14.351,6.313-14.35,14.35-14.35ZM3060.431,465.63c8.036,0,14.351,6.314,14.351,14.351s-6.314,14.35-14.351,14.35-14.35-6.313-14.35-14.35,6.313-14.351,14.35-14.351ZM3117.831,454.15c14.351,0,25.831,11.479,25.831,25.83s-11.48,25.83-25.831,25.83-25.83-11.48-25.83-25.83,11.48-25.83,25.83-25.83ZM3117.831,408.229c8.036,0,14.351,6.314,14.351,14.35s-6.314,14.351-14.351,14.351-14.35-6.314-14.35-14.351,6.314-14.35,14.35-14.35ZM3117.831,523.03c8.036,0,14.351,6.314,14.351,14.351s-6.314,14.35-14.351,14.35-14.35-6.313-14.35-14.35,6.314-14.351,14.35-14.351ZM3175.232,511.551c14.35,0,25.83,11.479,25.83,25.83s-11.48,25.83-25.83,25.83-25.831-11.48-25.831-25.83,11.48-25.83,25.831-25.83ZM3175.232,465.63c8.036,0,14.35,6.314,14.35,14.351s-6.313,14.35-14.35,14.35-14.351-6.313-14.351-14.35,6.314-14.351,14.351-14.351ZM3232.633,454.15c14.35,0,25.83,11.479,25.83,25.83s-11.48,25.83-25.83,25.83-25.83-11.48-25.83-25.83,11.479-25.83,25.83-25.83ZM3232.633,408.229c8.036,0,14.35,6.314,14.35,14.35s-6.313,14.351-14.35,14.351-14.351-6.314-14.351-14.351,6.314-14.35,14.351-14.35ZM3232.633,523.03c8.036,0,14.35,6.314,14.35,14.351s-6.313,14.35-14.35,14.35-14.351-6.313-14.351-14.35,6.314-14.351,14.351-14.351ZM3290.033,396.749c14.35,0,25.83,11.48,25.83,25.83s-11.48,25.831-25.83,25.831-25.83-11.48-25.83-25.831,11.479-25.83,25.83-25.83ZM3290.033,350.829c8.036,0,14.35,6.314,14.35,14.35s-6.313,14.351-14.35,14.351-14.351-6.314-14.351-14.351,6.314-14.35,14.351-14.35ZM3290.033,465.63c8.036,0,14.35,6.314,14.35,14.351s-6.313,14.35-14.35,14.35-14.351-6.313-14.351-14.35,6.314-14.351,14.351-14.351ZM3347.434,339.349c14.35,0,25.83,11.48,25.83,25.83s-11.48,25.83-25.83,25.83-25.83-11.479-25.83-25.83,11.479-25.83,25.83-25.83ZM3347.434,293.429c8.036,0,14.35,6.314,14.35,14.35s-6.313,14.35-14.35,14.35-14.351-6.314-14.351-14.35,6.314-14.35,14.351-14.35ZM3347.434,408.229c8.036,0,14.35,6.314,14.35,14.35s-6.313,14.351-14.35,14.351-14.351-6.314-14.351-14.351,6.314-14.35,14.351-14.35Z" fill="#231f20"/><path d="M3450.174,339.349c14.351,0,25.83,11.48,25.83,25.83s-11.479,25.83-25.83,25.83-25.83-11.479-25.83-25.83,11.48-25.83,25.83-25.83ZM3450.174,396.749c14.351,0,25.83,11.48,25.83,25.83s-11.479,25.831-25.83,25.831-25.83-11.48-25.83-25.831,11.48-25.83,25.83-25.83ZM3450.174,454.15c14.351,0,25.83,11.479,25.83,25.83s-11.479,25.83-25.83,25.83-25.83-11.48-25.83-25.83,11.48-25.83,25.83-25.83ZM3450.174,293.429c8.036,0,14.351,6.314,14.351,14.35s-6.314,14.35-14.351,14.35-14.35-6.314-14.35-14.35,6.313-14.35,14.35-14.35ZM3450.174,523.03c8.036,0,14.351,6.314,14.351,14.351s-6.314,14.35-14.351,14.35-14.35-6.313-14.35-14.35,6.313-14.351,14.35-14.351ZM3507.574,281.949c14.351,0,25.83,11.48,25.83,25.83s-11.479,25.83-25.83,25.83-25.83-11.48-25.83-25.83,11.48-25.83,25.83-25.83ZM3507.574,339.349c14.351,0,25.83,11.48,25.83,25.83s-11.479,25.83-25.83,25.83-25.83-11.479-25.83-25.83,11.48-25.83,25.83-25.83ZM3507.574,396.749c14.351,0,25.83,11.48,25.83,25.83s-11.479,25.831-25.83,25.831-25.83-11.48-25.83-25.831,11.48-25.83,25.83-25.83ZM3507.574,454.15c14.351,0,25.83,11.479,25.83,25.83s-11.479,25.83-25.83,25.83-25.83-11.48-25.83-25.83,11.48-25.83,25.83-25.83ZM3507.574,511.551c14.351,0,25.83,11.479,25.83,25.83s-11.479,25.83-25.83,25.83-25.83-11.48-25.83-25.83,11.48-25.83,25.83-25.83ZM3564.975,281.949c14.351,0,25.831,11.48,25.831,25.83s-11.48,25.83-25.831,25.83-25.83-11.48-25.83-25.83,11.48-25.83,25.83-25.83ZM3564.975,396.749c14.351,0,25.831,11.48,25.831,25.83s-11.48,25.831-25.831,25.831-25.83-11.48-25.83-25.831,11.48-25.83,25.83-25.83ZM3564.975,511.551c14.351,0,25.831,11.479,25.831,25.83s-11.48,25.83-25.831,25.83-25.83-11.48-25.83-25.83,11.48-25.83,25.83-25.83ZM3622.376,281.949c14.35,0,25.83,11.48,25.83,25.83s-11.48,25.83-25.83,25.83-25.831-11.48-25.831-25.83,11.48-25.83,25.831-25.83ZM3622.376,396.749c14.35,0,25.83,11.48,25.83,25.83s-11.48,25.831-25.83,25.831-25.831-11.48-25.831-25.831,11.48-25.83,25.831-25.83ZM3622.376,511.551c14.35,0,25.83,11.479,25.83,25.83s-11.48,25.83-25.83,25.83-25.831-11.48-25.831-25.83,11.48-25.83,25.831-25.83ZM3679.776,281.949c14.35,0,25.83,11.48,25.83,25.83s-11.48,25.83-25.83,25.83-25.83-11.48-25.83-25.83,11.479-25.83,25.83-25.83ZM3679.776,396.749c14.35,0,25.83,11.48,25.83,25.83s-11.48,25.831-25.83,25.831-25.83-11.48-25.83-25.831,11.479-25.83,25.83-25.83ZM3679.776,511.551c14.35,0,25.83,11.479,25.83,25.83s-11.48,25.83-25.83,25.83-25.83-11.48-25.83-25.83,11.479-25.83,25.83-25.83ZM3737.177,281.949c14.35,0,25.83,11.48,25.83,25.83s-11.48,25.83-25.83,25.83-25.83-11.48-25.83-25.83,11.479-25.83,25.83-25.83ZM3737.177,339.349c14.35,0,25.83,11.48,25.83,25.83s-11.48,25.83-25.83,25.83-25.83-11.479-25.83-25.83,11.479-25.83,25.83-25.83ZM3737.177,396.749c14.35,0,25.83,11.48,25.83,25.83s-11.48,25.831-25.83,25.831-25.83-11.48-25.83-25.831,11.479-25.83,25.83-25.83ZM3737.177,511.551c14.35,0,25.83,11.479,25.83,25.83s-11.48,25.83-25.83,25.83-25.83-11.48-25.83-25.83,11.479-25.83,25.83-25.83ZM3794.577,339.349c14.35,0,25.83,11.48,25.83,25.83s-11.48,25.83-25.83,25.83-25.83-11.479-25.83-25.83,11.479-25.83,25.83-25.83ZM3794.577,293.429c8.036,0,14.35,6.314,14.35,14.35s-6.313,14.35-14.35,14.35-14.351-6.314-14.351-14.35,6.314-14.35,14.351-14.35ZM3794.577,408.229c8.036,0,14.35,6.314,14.35,14.35s-6.313,14.351-14.35,14.351-14.351-6.314-14.351-14.351,6.314-14.35,14.351-14.35ZM3794.577,465.63c8.036,0,14.35,6.314,14.35,14.351s-6.313,14.35-14.35,14.35-14.351-6.313-14.351-14.35,6.314-14.351,14.351-14.351ZM3794.577,523.03c8.036,0,14.35,6.314,14.35,14.351s-6.313,14.35-14.35,14.35-14.351-6.313-14.351-14.35,6.314-14.351,14.351-14.351Z" fill="#231f20"/><path d="M3897.316,224.548c14.351,0,25.83,11.48,25.83,25.831s-11.479,25.83-25.83,25.83-25.83-11.48-25.83-25.83,11.48-25.831,25.83-25.831ZM3897.316,281.949c14.351,0,25.83,11.48,25.83,25.83s-11.479,25.83-25.83,25.83-25.83-11.48-25.83-25.83,11.48-25.83,25.83-25.83ZM3897.316,339.349c14.351,0,25.83,11.48,25.83,25.83s-11.479,25.83-25.83,25.83-25.83-11.479-25.83-25.83,11.48-25.83,25.83-25.83ZM3897.316,396.749c14.351,0,25.83,11.48,25.83,25.83s-11.479,25.831-25.83,25.831-25.83-11.48-25.83-25.831,11.48-25.83,25.83-25.83ZM3897.316,454.15c14.351,0,25.83,11.479,25.83,25.83s-11.479,25.83-25.83,25.83-25.83-11.48-25.83-25.83,11.48-25.83,25.83-25.83ZM3897.316,178.627c8.036,0,14.351,6.314,14.351,14.35s-6.314,14.35-14.351,14.35-14.35-6.314-14.35-14.35,6.313-14.35,14.35-14.35ZM3897.316,523.03c8.036,0,14.351,6.314,14.351,14.351s-6.314,14.35-14.351,14.35-14.35-6.313-14.35-14.35,6.313-14.351,14.35-14.351ZM3954.717,167.147c14.351,0,25.83,11.48,25.83,25.83s-11.479,25.831-25.83,25.831-25.83-11.48-25.83-25.831,11.48-25.83,25.83-25.83ZM3954.717,224.548c14.351,0,25.83,11.48,25.83,25.831s-11.479,25.83-25.83,25.83-25.83-11.48-25.83-25.83,11.48-25.831,25.83-25.831ZM3954.717,281.949c14.351,0,25.83,11.48,25.83,25.83s-11.479,25.83-25.83,25.83-25.83-11.48-25.83-25.83,11.48-25.83,25.83-25.83ZM3954.717,339.349c14.351,0,25.83,11.48,25.83,25.83s-11.479,25.83-25.83,25.83-25.83-11.479-25.83-25.83,11.48-25.83,25.83-25.83ZM3954.717,396.749c14.351,0,25.83,11.48,25.83,25.83s-11.479,25.831-25.83,25.831-25.83-11.48-25.83-25.831,11.48-25.83,25.83-25.83ZM3954.717,454.15c14.351,0,25.83,11.479,25.83,25.83s-11.479,25.83-25.83,25.83-25.83-11.48-25.83-25.83,11.48-25.83,25.83-25.83ZM3954.717,511.551c14.351,0,25.83,11.479,25.83,25.83s-11.479,25.83-25.83,25.83-25.83-11.48-25.83-25.83,11.48-25.83,25.83-25.83ZM4012.117,167.147c14.351,0,25.831,11.48,25.831,25.83s-11.48,25.831-25.831,25.831-25.83-11.48-25.83-25.831,11.48-25.83,25.83-25.83ZM4012.117,511.551c14.351,0,25.831,11.479,25.831,25.83s-11.48,25.83-25.831,25.83-25.83-11.48-25.83-25.83,11.48-25.83,25.83-25.83ZM4069.519,167.147c14.35,0,25.83,11.48,25.83,25.83s-11.48,25.831-25.83,25.831-25.831-11.48-25.831-25.831,11.48-25.83,25.831-25.83ZM4069.519,511.551c14.35,0,25.83,11.479,25.83,25.83s-11.48,25.83-25.83,25.83-25.831-11.48-25.831-25.83,11.48-25.83,25.831-25.83ZM4126.919,167.147c14.35,0,25.83,11.48,25.83,25.83s-11.48,25.831-25.83,25.831-25.83-11.48-25.83-25.831,11.479-25.83,25.83-25.83ZM4126.919,511.551c14.35,0,25.83,11.479,25.83,25.83s-11.48,25.83-25.83,25.83-25.83-11.48-25.83-25.83,11.479-25.83,25.83-25.83ZM4184.319,167.147c14.35,0,25.83,11.48,25.83,25.83s-11.48,25.831-25.83,25.831-25.83-11.48-25.83-25.831,11.479-25.83,25.83-25.83ZM4184.319,224.548c14.35,0,25.83,11.48,25.83,25.831s-11.48,25.83-25.83,25.83-25.83-11.48-25.83-25.83,11.479-25.831,25.83-25.831ZM4184.319,281.949c14.35,0,25.83,11.48,25.83,25.83s-11.48,25.83-25.83,25.83-25.83-11.48-25.83-25.83,11.479-25.83,25.83-25.83ZM4184.319,339.349c14.35,0,25.83,11.48,25.83,25.83s-11.48,25.83-25.83,25.83-25.83-11.479-25.83-25.83,11.479-25.83,25.83-25.83ZM4184.319,396.749c14.35,0,25.83,11.48,25.83,25.83s-11.48,25.831-25.83,25.831-25.83-11.48-25.83-25.831,11.479-25.83,25.83-25.83ZM4184.319,454.15c14.35,0,25.83,11.479,25.83,25.83s-11.48,25.83-25.83,25.83-25.83-11.48-25.83-25.83,11.479-25.83,25.83-25.83ZM4184.319,511.551c14.35,0,25.83,11.479,25.83,25.83s-11.48,25.83-25.83,25.83-25.83-11.48-25.83-25.83,11.479-25.83,25.83-25.83ZM4241.72,224.548c14.35,0,25.83,11.48,25.83,25.831s-11.48,25.83-25.83,25.83-25.83-11.48-25.83-25.83,11.479-25.831,25.83-25.831ZM4241.72,281.949c14.35,0,25.83,11.48,25.83,25.83s-11.48,25.83-25.83,25.83-25.83-11.48-25.83-25.83,11.479-25.83,25.83-25.83ZM4241.72,339.349c14.35,0,25.83,11.48,25.83,25.83s-11.48,25.83-25.83,25.83-25.83-11.479-25.83-25.83,11.479-25.83,25.83-25.83ZM4241.72,396.749c14.35,0,25.83,11.48,25.83,25.83s-11.48,25.831-25.83,25.831-25.83-11.48-25.83-25.831,11.479-25.83,25.83-25.83ZM4241.72,454.15c14.35,0,25.83,11.479,25.83,25.83s-11.48,25.83-25.83,25.83-25.83-11.48-25.83-25.83,11.479-25.83,25.83-25.83ZM4241.72,178.627c8.036,0,14.35,6.314,14.35,14.35s-6.313,14.35-14.35,14.35-14.351-6.314-14.351-14.35,6.314-14.35,14.351-14.35ZM4241.72,523.03c8.036,0,14.35,6.314,14.35,14.351s-6.313,14.35-14.35,14.35-14.351-6.313-14.351-14.35,6.314-14.351,14.351-14.351Z" fill="#231f20"/><path d="M4344.459,281.949c14.351,0,25.83,11.48,25.83,25.83s-11.479,25.83-25.83,25.83-25.83-11.48-25.83-25.83,11.48-25.83,25.83-25.83ZM4344.459,511.551c14.351,0,25.83,11.479,25.83,25.83s-11.479,25.83-25.83,25.83-25.83-11.48-25.83-25.83,11.48-25.83,25.83-25.83ZM4401.859,281.949c14.351,0,25.83,11.48,25.83,25.83s-11.479,25.83-25.83,25.83-25.83-11.48-25.83-25.83,11.48-25.83,25.83-25.83ZM4401.859,511.551c14.351,0,25.83,11.479,25.83,25.83s-11.479,25.83-25.83,25.83-25.83-11.48-25.83-25.83,11.48-25.83,25.83-25.83ZM4459.26,281.949c14.351,0,25.831,11.48,25.831,25.83s-11.48,25.83-25.831,25.83-25.83-11.48-25.83-25.83,11.48-25.83,25.83-25.83ZM4459.26,339.349c14.351,0,25.831,11.48,25.831,25.83s-11.48,25.83-25.831,25.83-25.83-11.479-25.83-25.83,11.48-25.83,25.83-25.83ZM4459.26,396.749c14.351,0,25.831,11.48,25.831,25.83s-11.48,25.831-25.831,25.831-25.83-11.48-25.83-25.831,11.48-25.83,25.83-25.83ZM4459.26,454.15c14.351,0,25.831,11.479,25.831,25.83s-11.48,25.83-25.831,25.83-25.83-11.48-25.83-25.83,11.48-25.83,25.83-25.83ZM4459.26,511.551c14.351,0,25.831,11.479,25.831,25.83s-11.48,25.83-25.831,25.83-25.83-11.48-25.83-25.83,11.48-25.83,25.83-25.83ZM4516.661,339.349c14.35,0,25.83,11.48,25.83,25.83s-11.48,25.83-25.83,25.83-25.831-11.479-25.831-25.83,11.48-25.83,25.831-25.83ZM4516.661,396.749c14.35,0,25.83,11.48,25.83,25.83s-11.48,25.831-25.83,25.831-25.831-11.48-25.831-25.831,11.48-25.83,25.831-25.83ZM4516.661,454.15c14.35,0,25.83,11.479,25.83,25.83s-11.48,25.83-25.83,25.83-25.831-11.48-25.831-25.83,11.48-25.83,25.831-25.83ZM4516.661,511.551c14.35,0,25.83,11.479,25.83,25.83s-11.48,25.83-25.83,25.83-25.831-11.48-25.831-25.83,11.48-25.83,25.831-25.83ZM4516.661,293.429c8.035,0,14.35,6.314,14.35,14.35s-6.314,14.35-14.35,14.35-14.351-6.314-14.351-14.35,6.314-14.35,14.351-14.35ZM4574.062,511.551c14.35,0,25.83,11.479,25.83,25.83s-11.48,25.83-25.83,25.83-25.83-11.48-25.83-25.83,11.479-25.83,25.83-25.83ZM4574.062,293.429c8.036,0,14.35,6.314,14.35,14.35s-6.313,14.35-14.35,14.35-14.351-6.314-14.351-14.35,6.314-14.35,14.351-14.35ZM4631.462,281.949c14.35,0,25.83,11.48,25.83,25.83s-11.48,25.83-25.83,25.83-25.83-11.48-25.83-25.83,11.479-25.83,25.83-25.83ZM4631.462,511.551c14.35,0,25.83,11.479,25.83,25.83s-11.48,25.83-25.83,25.83-25.83-11.48-25.83-25.83,11.479-25.83,25.83-25.83ZM4688.862,293.429c8.036,0,14.35,6.314,14.35,14.35s-6.313,14.35-14.35,14.35-14.351-6.314-14.351-14.35,6.314-14.35,14.351-14.35ZM4688.862,350.829c8.036,0,14.35,6.314,14.35,14.35s-6.313,14.351-14.35,14.351-14.351-6.314-14.351-14.351,6.314-14.35,14.351-14.35Z" fill="#231f20"/><path d="M4791.602,339.349c14.351,0,25.83,11.48,25.83,25.83s-11.479,25.83-25.83,25.83-25.83-11.479-25.83-25.83,11.48-25.83,25.83-25.83ZM4791.602,396.749c14.351,0,25.83,11.48,25.83,25.83s-11.479,25.831-25.83,25.831-25.83-11.48-25.83-25.831,11.48-25.83,25.83-25.83ZM4791.602,454.15c14.351,0,25.83,11.479,25.83,25.83s-11.479,25.83-25.83,25.83-25.83-11.48-25.83-25.83,11.48-25.83,25.83-25.83ZM4791.602,293.429c8.036,0,14.351,6.314,14.351,14.35s-6.314,14.35-14.351,14.35-14.35-6.314-14.35-14.35,6.313-14.35,14.35-14.35ZM4791.602,523.03c8.036,0,14.351,6.314,14.351,14.351s-6.314,14.35-14.351,14.35-14.35-6.313-14.35-14.35,6.313-14.351,14.35-14.351ZM4849.002,281.949c14.351,0,25.83,11.48,25.83,25.83s-11.479,25.83-25.83,25.83-25.83-11.48-25.83-25.83,11.48-25.83,25.83-25.83ZM4849.002,339.349c14.351,0,25.83,11.48,25.83,25.83s-11.479,25.83-25.83,25.83-25.83-11.479-25.83-25.83,11.48-25.83,25.83-25.83ZM4849.002,396.749c14.351,0,25.83,11.48,25.83,25.83s-11.479,25.831-25.83,25.831-25.83-11.48-25.83-25.831,11.48-25.83,25.83-25.83ZM4849.002,454.15c14.351,0,25.83,11.479,25.83,25.83s-11.479,25.83-25.83,25.83-25.83-11.48-25.83-25.83,11.48-25.83,25.83-25.83ZM4849.002,511.551c14.351,0,25.83,11.479,25.83,25.83s-11.479,25.83-25.83,25.83-25.83-11.48-25.83-25.83,11.48-25.83,25.83-25.83ZM4906.402,281.949c14.351,0,25.831,11.48,25.831,25.83s-11.48,25.83-25.831,25.83-25.83-11.48-25.83-25.83,11.48-25.83,25.83-25.83ZM4906.402,511.551c14.351,0,25.831,11.479,25.831,25.83s-11.48,25.83-25.831,25.83-25.83-11.48-25.83-25.83,11.48-25.83,25.83-25.83ZM4963.804,281.949c14.35,0,25.83,11.48,25.83,25.83s-11.48,25.83-25.83,25.83-25.831-11.48-25.831-25.83,11.48-25.83,25.831-25.83ZM4963.804,511.551c14.35,0,25.83,11.479,25.83,25.83s-11.48,25.83-25.83,25.83-25.831-11.48-25.831-25.83,11.48-25.83,25.831-25.83ZM5021.204,293.429c8.036,0,14.35,6.314,14.35,14.35s-6.313,14.35-14.35,14.35-14.351-6.314-14.351-14.35,6.314-14.35,14.351-14.35ZM5021.204,523.03c8.036,0,14.35,6.314,14.35,14.351s-6.313,14.35-14.35,14.35-14.351-6.313-14.351-14.35,6.314-14.351,14.351-14.351ZM5078.604,224.548c14.35,0,25.83,11.48,25.83,25.831s-11.48,25.83-25.83,25.83-25.83-11.48-25.83-25.83,11.479-25.831,25.83-25.831ZM5078.604,281.949c14.35,0,25.83,11.48,25.83,25.83s-11.48,25.83-25.83,25.83-25.83-11.48-25.83-25.83,11.479-25.83,25.83-25.83ZM5078.604,339.349c14.35,0,25.83,11.48,25.83,25.83s-11.48,25.83-25.83,25.83-25.83-11.479-25.83-25.83,11.479-25.83,25.83-25.83ZM5078.604,396.749c14.35,0,25.83,11.48,25.83,25.83s-11.48,25.831-25.83,25.831-25.83-11.48-25.83-25.831,11.479-25.83,25.83-25.83ZM5078.604,454.15c14.35,0,25.83,11.479,25.83,25.83s-11.48,25.83-25.83,25.83-25.83-11.48-25.83-25.83,11.479-25.83,25.83-25.83ZM5078.604,178.627c8.036,0,14.35,6.314,14.35,14.35s-6.313,14.35-14.35,14.35-14.351-6.314-14.351-14.35,6.314-14.35,14.351-14.35ZM5078.604,523.03c8.036,0,14.35,6.314,14.35,14.351s-6.313,14.35-14.35,14.35-14.351-6.313-14.351-14.35,6.314-14.351,14.351-14.351ZM5136.005,167.147c14.35,0,25.83,11.48,25.83,25.83s-11.48,25.831-25.83,25.831-25.83-11.48-25.83-25.831,11.479-25.83,25.83-25.83ZM5136.005,224.548c14.35,0,25.83,11.48,25.83,25.831s-11.48,25.83-25.83,25.83-25.83-11.48-25.83-25.83,11.479-25.831,25.83-25.831ZM5136.005,281.949c14.35,0,25.83,11.48,25.83,25.83s-11.48,25.83-25.83,25.83-25.83-11.48-25.83-25.83,11.479-25.83,25.83-25.83ZM5136.005,339.349c14.35,0,25.83,11.48,25.83,25.83s-11.48,25.83-25.83,25.83-25.83-11.479-25.83-25.83,11.479-25.83,25.83-25.83ZM5136.005,396.749c14.35,0,25.83,11.48,25.83,25.83s-11.48,25.831-25.83,25.831-25.83-11.48-25.83-25.831,11.479-25.83,25.83-25.83ZM5136.005,454.15c14.35,0,25.83,11.479,25.83,25.83s-11.48,25.83-25.83,25.83-25.83-11.48-25.83-25.83,11.479-25.83,25.83-25.83ZM5136.005,511.551c14.35,0,25.83,11.479,25.83,25.83s-11.48,25.83-25.83,25.83-25.83-11.48-25.83-25.83,11.479-25.83,25.83-25.83Z" fill="#231f20"/><path d="M5238.744,339.349c14.351,0,25.83,11.48,25.83,25.83s-11.479,25.83-25.83,25.83-25.83-11.479-25.83-25.83,11.48-25.83,25.83-25.83ZM5238.744,396.749c14.351,0,25.83,11.48,25.83,25.83s-11.479,25.831-25.83,25.831-25.83-11.48-25.83-25.831,11.48-25.83,25.83-25.83ZM5238.744,454.15c14.351,0,25.83,11.479,25.83,25.83s-11.479,25.83-25.83,25.83-25.83-11.48-25.83-25.83,11.48-25.83,25.83-25.83ZM5238.744,293.429c8.036,0,14.351,6.314,14.351,14.35s-6.314,14.35-14.351,14.35-14.35-6.314-14.35-14.35,6.313-14.35,14.35-14.35ZM5238.744,523.03c8.036,0,14.351,6.314,14.351,14.351s-6.314,14.35-14.351,14.35-14.35-6.313-14.35-14.35,6.313-14.351,14.35-14.351ZM5296.145,281.949c14.351,0,25.83,11.48,25.83,25.83s-11.479,25.83-25.83,25.83-25.83-11.48-25.83-25.83,11.48-25.83,25.83-25.83ZM5296.145,339.349c14.351,0,25.83,11.48,25.83,25.83s-11.479,25.83-25.83,25.83-25.83-11.479-25.83-25.83,11.48-25.83,25.83-25.83ZM5296.145,396.749c14.351,0,25.83,11.48,25.83,25.83s-11.479,25.831-25.83,25.831-25.83-11.48-25.83-25.831,11.48-25.83,25.83-25.83ZM5296.145,454.15c14.351,0,25.83,11.479,25.83,25.83s-11.479,25.83-25.83,25.83-25.83-11.48-25.83-25.83,11.48-25.83,25.83-25.83ZM5296.145,511.551c14.351,0,25.83,11.479,25.83,25.83s-11.479,25.83-25.83,25.83-25.83-11.48-25.83-25.83,11.48-25.83,25.83-25.83ZM5353.545,281.949c14.351,0,25.831,11.48,25.831,25.83s-11.48,25.83-25.831,25.83-25.83-11.48-25.83-25.83,11.48-25.83,25.83-25.83ZM5353.545,396.749c14.351,0,25.831,11.48,25.831,25.83s-11.48,25.831-25.831,25.831-25.83-11.48-25.83-25.831,11.48-25.83,25.83-25.83ZM5353.545,511.551c14.351,0,25.831,11.479,25.831,25.83s-11.48,25.83-25.831,25.83-25.83-11.48-25.83-25.83,11.48-25.83,25.83-25.83ZM5410.946,281.949c14.35,0,25.83,11.48,25.83,25.83s-11.48,25.83-25.83,25.83-25.831-11.48-25.831-25.83,11.48-25.83,25.831-25.83ZM5410.946,396.749c14.35,0,25.83,11.48,25.83,25.83s-11.48,25.831-25.83,25.831-25.831-11.48-25.831-25.831,11.48-25.83,25.831-25.83ZM5410.946,511.551c14.35,0,25.83,11.479,25.83,25.83s-11.48,25.83-25.83,25.83-25.831-11.48-25.831-25.83,11.48-25.83,25.831-25.83ZM5468.347,281.949c14.35,0,25.83,11.48,25.83,25.83s-11.48,25.83-25.83,25.83-25.83-11.48-25.83-25.83,11.479-25.83,25.83-25.83ZM5468.347,396.749c14.35,0,25.83,11.48,25.83,25.83s-11.48,25.831-25.83,25.831-25.83-11.48-25.83-25.831,11.479-25.83,25.83-25.83ZM5468.347,511.551c14.35,0,25.83,11.479,25.83,25.83s-11.48,25.83-25.83,25.83-25.83-11.48-25.83-25.83,11.479-25.83,25.83-25.83ZM5525.747,281.949c14.35,0,25.83,11.48,25.83,25.83s-11.48,25.83-25.83,25.83-25.83-11.48-25.83-25.83,11.479-25.83,25.83-25.83ZM5525.747,339.349c14.35,0,25.83,11.48,25.83,25.83s-11.48,25.83-25.83,25.83-25.83-11.479-25.83-25.83,11.479-25.83,25.83-25.83ZM5525.747,396.749c14.35,0,25.83,11.48,25.83,25.83s-11.48,25.831-25.83,25.831-25.83-11.48-25.83-25.831,11.479-25.83,25.83-25.83ZM5525.747,511.551c14.35,0,25.83,11.479,25.83,25.83s-11.48,25.83-25.83,25.83-25.83-11.48-25.83-25.83,11.479-25.83,25.83-25.83ZM5583.147,339.349c14.35,0,25.83,11.48,25.83,25.83s-11.48,25.83-25.83,25.83-25.83-11.479-25.83-25.83,11.479-25.83,25.83-25.83ZM5583.147,293.429c8.036,0,14.35,6.314,14.35,14.35s-6.313,14.35-14.35,14.35-14.351-6.314-14.351-14.35,6.314-14.35,14.351-14.35ZM5583.147,408.229c8.036,0,14.35,6.314,14.35,14.35s-6.313,14.351-14.35,14.351-14.351-6.314-14.351-14.351,6.314-14.35,14.351-14.35ZM5583.147,465.63c8.036,0,14.35,6.314,14.35,14.351s-6.313,14.35-14.35,14.35-14.351-6.313-14.351-14.35,6.314-14.351,14.351-14.351ZM5583.147,523.03c8.036,0,14.35,6.314,14.35,14.351s-6.313,14.35-14.35,14.35-14.351-6.313-14.351-14.35,6.314-14.351,14.351-14.351Z" fill="#231f20"/><path d="M5685.887,281.949c14.351,0,25.83,11.48,25.83,25.83s-11.479,25.83-25.83,25.83-25.83-11.48-25.83-25.83,11.48-25.83,25.83-25.83ZM5685.887,511.551c14.351,0,25.83,11.479,25.83,25.83s-11.479,25.83-25.83,25.83-25.83-11.48-25.83-25.83,11.48-25.83,25.83-25.83ZM5743.287,281.949c14.351,0,25.83,11.48,25.83,25.83s-11.479,25.83-25.83,25.83-25.83-11.48-25.83-25.83,11.48-25.83,25.83-25.83ZM5743.287,511.551c14.351,0,25.83,11.479,25.83,25.83s-11.479,25.83-25.83,25.83-25.83-11.48-25.83-25.83,11.48-25.83,25.83-25.83ZM5800.688,281.949c14.351,0,25.831,11.48,25.831,25.83s-11.48,25.83-25.831,25.83-25.83-11.48-25.83-25.83,11.48-25.83,25.83-25.83ZM5800.688,339.349c14.351,0,25.831,11.48,25.831,25.83s-11.48,25.83-25.831,25.83-25.83-11.479-25.83-25.83,11.48-25.83,25.83-25.83ZM5800.688,396.749c14.351,0,25.831,11.48,25.831,25.83s-11.48,25.831-25.831,25.831-25.83-11.48-25.83-25.831,11.48-25.83,25.83-25.83ZM5800.688,454.15c14.351,0,25.831,11.479,25.831,25.83s-11.48,25.83-25.831,25.83-25.83-11.48-25.83-25.83,11.48-25.83,25.83-25.83ZM5800.688,511.551c14.351,0,25.831,11.479,25.831,25.83s-11.48,25.83-25.831,25.83-25.83-11.48-25.83-25.83,11.48-25.83,25.83-25.83ZM5858.089,339.349c14.35,0,25.83,11.48,25.83,25.83s-11.48,25.83-25.83,25.83-25.831-11.479-25.831-25.83,11.48-25.83,25.831-25.83ZM5858.089,396.749c14.35,0,25.83,11.48,25.83,25.83s-11.48,25.831-25.83,25.831-25.831-11.48-25.831-25.831,11.48-25.83,25.831-25.83ZM5858.089,454.15c14.35,0,25.83,11.479,25.83,25.83s-11.48,25.83-25.83,25.83-25.831-11.48-25.831-25.83,11.48-25.83,25.831-25.83ZM5858.089,511.551c14.35,0,25.83,11.479,25.83,25.83s-11.48,25.83-25.83,25.83-25.831-11.48-25.831-25.83,11.48-25.83,25.831-25.83ZM5858.089,293.429c8.035,0,14.35,6.314,14.35,14.35s-6.314,14.35-14.35,14.35-14.351-6.314-14.351-14.35,6.314-14.35,14.351-14.35ZM5915.489,511.551c14.35,0,25.83,11.479,25.83,25.83s-11.48,25.83-25.83,25.83-25.83-11.48-25.83-25.83,11.479-25.83,25.83-25.83ZM5915.489,293.429c8.036,0,14.35,6.314,14.35,14.35s-6.313,14.35-14.35,14.35-14.351-6.314-14.351-14.35,6.314-14.35,14.351-14.35ZM5972.89,281.949c14.35,0,25.83,11.48,25.83,25.83s-11.48,25.83-25.83,25.83-25.83-11.48-25.83-25.83,11.479-25.83,25.83-25.83ZM5972.89,511.551c14.35,0,25.83,11.479,25.83,25.83s-11.48,25.83-25.83,25.83-25.83-11.48-25.83-25.83,11.479-25.83,25.83-25.83ZM6030.29,293.429c8.036,0,14.35,6.314,14.35,14.35s-6.313,14.35-14.35,14.35-14.351-6.314-14.351-14.35,6.314-14.35,14.351-14.35ZM6030.29,350.829c8.036,0,14.35,6.314,14.35,14.35s-6.313,14.351-14.35,14.351-14.351-6.314-14.351-14.351,6.314-14.35,14.351-14.35Z" fill="#231f20"/><g id="Generative_Object"><g id="Original_Art"><path d="M606.372,234.387l-85.454,52.748-130.348,81.14c-8.3,5.743-17.798,8.59-27.371,5.931-8.574-2.38-13.038-9.401-13.038-18.292l.021-312.134c0-7.881,7.499-12.522,14.257-12.05,8.923.623,15.858,4.094,23.283,8.59l91.132,55.15,123.714,72.931c9.772,5.759,16.61,12.839,19.248,24.174,3.664,15.729-2.068,31.19-15.455,41.811h.011Z" fill="url(#linear-gradient)"/><path d="M194.323,318.213L62.465,239.222c-6.258-3.75-11.636-6.957-16.815-11.845-6.334-5.984-11.109-13.881-11.609-22.88-.698-12.694,5.807-23.084,16.208-30.315L279.906,36.995c5.888-2.804,10.835-4.641,17.325-5.275,6.285-.612,13.984,3.793,13.984,11.217l.016,316.673c0,9.89-9.578,16.336-18.206,15.445-5.286-.543-10.266-1.821-14.639-4.545l-84.057-52.308-.005.011Z" fill="url(#linear-gradient-7)"/><path d="M310.634,692.464c0,7.123-5.678,12.136-11.894,12.576-4.464.317-9.82-.677-13.634-3.153l-40.307-26.178-178.81-112.609c-17.363-10.938-32.136-28.311-32.195-49.557l-.258-99.05c7.634,16.396,13.355,36.063,28.945,45.91l223.693,141.248c14.134,8.923,24.491,21.096,24.481,38.915l-.027,51.905.005-.005Z" fill="url(#linear-gradient-8)"/><path d="M353.213,693.361l-.188-53.855c-.059-16.831,9.911-28.628,23.234-37.057l222.882-141.076c9.815-6.21,15.971-17.164,20.215-27.177l7.827-18.475-.22,99.308c-.043,18.534-11.7,36.793-27.253,46.726l-220.287,140.7c-3.755,2.401-8.536,3.035-12.855,3.089-6.21.081-13.334-4.803-13.355-12.189v.005Z" fill="url(#linear-gradient-9)"/><path d="M310.859,530.447c.038,7.585-5.055,13.253-12.291,13.462-5.474.161-10.567-2.385-15.337-5.576l-82.053-54.779-139.771-87.527c-11.99-7.505-27.709-31.668-27.741-48.005l-.188-88.881,10.792,23.207c5.592,12.033,15.257,18.834,26.361,25.662l190.773,117.31,24.975,15.359c12.914,7.94,24.153,20.253,24.228,36.509l.252,53.253v.005Z" fill="url(#linear-gradient-10)"/><path d="M366.144,544.081c-8.209.564-13.274-6.011-13.242-13.156l.242-54.763c.064-14.585,9.702-26.006,21.424-33.275l223.371-138.578c9.997-6.199,16.578-15.923,21.23-26.312l8.053-17.975-.242,85.4c-.059,20.704-12.028,38.851-27.113,52.335l-152.105,96.246-70.267,46.624c-2.896,1.918-7.618,3.196-11.351,3.454h0Z" fill="url(#linear-gradient-11)"/><rect x="681.217" y="167.156" width="5759.512" height="494.67" fill="none"/><path d="M767.317,339.349c14.35,0,25.831,11.48,25.831,25.83s-11.48,25.83-25.831,25.83-25.83-11.479-25.83-25.83,11.48-25.83,25.83-25.83ZM767.317,396.749c14.35,0,25.831,11.48,25.831,25.83s-11.48,25.831-25.831,25.831-25.83-11.48-25.83-25.831,11.48-25.83,25.83-25.83ZM767.317,454.15c14.35,0,25.831,11.479,25.831,25.83s-11.48,25.83-25.831,25.83-25.83-11.48-25.83-25.83,11.48-25.83,25.83-25.83ZM767.317,511.551c14.35,0,25.831,11.479,25.831,25.83s-11.48,25.83-25.831,25.83-25.83-11.48-25.83-25.83,11.48-25.83,25.83-25.83ZM767.317,293.429c8.036,0,14.35,6.314,14.35,14.35s-6.314,14.35-14.35,14.35-14.35-6.314-14.35-14.35,6.314-14.35,14.35-14.35ZM824.718,281.949c14.35,0,25.83,11.48,25.83,25.83s-11.48,25.83-25.83,25.83-25.831-11.48-25.831-25.83,11.48-25.83,25.831-25.83ZM824.718,339.349c14.35,0,25.83,11.48,25.83,25.83s-11.48,25.83-25.83,25.83-25.831-11.479-25.831-25.83,11.48-25.83,25.831-25.83ZM824.718,396.749c14.35,0,25.83,11.48,25.83,25.83s-11.48,25.831-25.83,25.831-25.831-11.48-25.831-25.831,11.48-25.83,25.831-25.83ZM824.718,454.15c14.35,0,25.83,11.479,25.83,25.83s-11.48,25.83-25.83,25.83-25.831-11.48-25.831-25.83,11.48-25.83,25.831-25.83ZM824.718,511.551c14.35,0,25.83,11.479,25.83,25.83s-11.48,25.83-25.83,25.83-25.831-11.48-25.831-25.83,11.48-25.83,25.831-25.83ZM824.718,236.028c8.036,0,14.35,6.314,14.35,14.35s-6.314,14.35-14.35,14.35-14.35-6.314-14.35-14.35,6.314-14.35,14.35-14.35ZM882.119,224.548c14.35,0,25.83,11.48,25.83,25.831s-11.48,25.83-25.83,25.83-25.83-11.48-25.83-25.83,11.48-25.831,25.83-25.831ZM882.119,396.749c14.35,0,25.83,11.48,25.83,25.83s-11.48,25.831-25.83,25.831-25.83-11.48-25.83-25.831,11.48-25.83,25.83-25.83ZM882.119,178.627c8.036,0,14.35,6.314,14.35,14.35s-6.314,14.35-14.35,14.35-14.35-6.314-14.35-14.35,6.314-14.35,14.35-14.35ZM882.119,293.429c8.036,0,14.35,6.314,14.35,14.35s-6.314,14.35-14.35,14.35-14.35-6.314-14.35-14.35,6.314-14.35,14.35-14.35ZM939.519,167.147c14.35,0,25.83,11.48,25.83,25.83s-11.48,25.831-25.83,25.831-25.83-11.48-25.83-25.831,11.48-25.83,25.83-25.83ZM939.519,396.749c14.35,0,25.83,11.48,25.83,25.83s-11.48,25.831-25.83,25.831-25.83-11.48-25.83-25.831,11.48-25.83,25.83-25.83ZM939.519,236.028c8.036,0,14.35,6.314,14.35,14.35s-6.314,14.35-14.35,14.35-14.35-6.314-14.35-14.35,6.314-14.35,14.35-14.35ZM996.919,224.548c14.35,0,25.831,11.48,25.831,25.831s-11.48,25.83-25.831,25.83-25.83-11.48-25.83-25.83,11.48-25.831,25.83-25.831ZM996.919,396.749c14.35,0,25.831,11.48,25.831,25.83s-11.48,25.831-25.831,25.831-25.83-11.48-25.83-25.831,11.48-25.83,25.83-25.83ZM996.919,178.627c8.036,0,14.35,6.314,14.35,14.35s-6.314,14.35-14.35,14.35-14.35-6.314-14.35-14.35,6.314-14.35,14.35-14.35ZM996.919,293.429c8.036,0,14.35,6.314,14.35,14.35s-6.314,14.35-14.35,14.35-14.35-6.314-14.35-14.35,6.314-14.35,14.35-14.35ZM1054.32,281.949c14.35,0,25.83,11.48,25.83,25.83s-11.48,25.83-25.83,25.83-25.831-11.48-25.831-25.83,11.48-25.83,25.831-25.83ZM1054.32,339.349c14.35,0,25.83,11.48,25.83,25.83s-11.48,25.83-25.83,25.83-25.831-11.479-25.831-25.83,11.48-25.83,25.831-25.83ZM1054.32,396.749c14.35,0,25.83,11.48,25.83,25.83s-11.48,25.831-25.83,25.831-25.831-11.48-25.831-25.831,11.48-25.83,25.831-25.83ZM1054.32,454.15c14.35,0,25.83,11.479,25.83,25.83s-11.48,25.83-25.83,25.83-25.831-11.48-25.831-25.83,11.48-25.83,25.831-25.83ZM1054.32,511.551c14.35,0,25.83,11.479,25.83,25.83s-11.48,25.83-25.83,25.83-25.831-11.48-25.831-25.83,11.48-25.83,25.831-25.83ZM1054.32,236.028c8.036,0,14.35,6.314,14.35,14.35s-6.313,14.35-14.35,14.35-14.35-6.314-14.35-14.35,6.314-14.35,14.35-14.35ZM1111.721,339.349c14.35,0,25.83,11.48,25.83,25.83s-11.48,25.83-25.83,25.83-25.83-11.479-25.83-25.83,11.479-25.83,25.83-25.83ZM1111.721,396.749c14.35,0,25.83,11.48,25.83,25.83s-11.48,25.831-25.83,25.831-25.83-11.48-25.83-25.831,11.479-25.83,25.83-25.83ZM1111.721,454.15c14.35,0,25.83,11.479,25.83,25.83s-11.48,25.83-25.83,25.83-25.83-11.48-25.83-25.83,11.479-25.83,25.83-25.83ZM1111.721,511.551c14.35,0,25.83,11.479,25.83,25.83s-11.48,25.83-25.83,25.83-25.83-11.48-25.83-25.83,11.479-25.83,25.83-25.83ZM1111.721,293.429c8.036,0,14.35,6.314,14.35,14.35s-6.313,14.35-14.35,14.35-14.351-6.314-14.351-14.35,6.314-14.35,14.351-14.35Z" fill="#231f20"/><path d="M1214.46,281.949c14.351,0,25.83,11.48,25.83,25.83s-11.479,25.83-25.83,25.83-25.83-11.48-25.83-25.83,11.48-25.83,25.83-25.83ZM1214.46,511.551c14.351,0,25.83,11.479,25.83,25.83s-11.479,25.83-25.83,25.83-25.83-11.48-25.83-25.83,11.48-25.83,25.83-25.83ZM1271.86,281.949c14.351,0,25.83,11.48,25.83,25.83s-11.479,25.83-25.83,25.83-25.83-11.48-25.83-25.83,11.48-25.83,25.83-25.83ZM1271.86,511.551c14.351,0,25.83,11.479,25.83,25.83s-11.479,25.83-25.83,25.83-25.83-11.48-25.83-25.83,11.48-25.83,25.83-25.83ZM1329.261,281.949c14.351,0,25.831,11.48,25.831,25.83s-11.48,25.83-25.831,25.83-25.83-11.48-25.83-25.83,11.48-25.83,25.83-25.83ZM1329.261,339.349c14.351,0,25.831,11.48,25.831,25.83s-11.48,25.83-25.831,25.83-25.83-11.479-25.83-25.83,11.48-25.83,25.83-25.83ZM1329.261,396.749c14.351,0,25.831,11.48,25.831,25.83s-11.48,25.831-25.831,25.831-25.83-11.48-25.83-25.831,11.48-25.83,25.83-25.83ZM1329.261,454.15c14.351,0,25.831,11.479,25.831,25.83s-11.48,25.83-25.831,25.83-25.83-11.48-25.83-25.83,11.48-25.83,25.83-25.83ZM1329.261,511.551c14.351,0,25.831,11.479,25.831,25.83s-11.48,25.83-25.831,25.83-25.83-11.48-25.83-25.83,11.48-25.83,25.83-25.83ZM1386.662,339.349c14.35,0,25.83,11.48,25.83,25.83s-11.48,25.83-25.83,25.83-25.831-11.479-25.831-25.83,11.48-25.83,25.831-25.83ZM1386.662,396.749c14.35,0,25.83,11.48,25.83,25.83s-11.48,25.831-25.83,25.831-25.831-11.48-25.831-25.831,11.48-25.83,25.831-25.83ZM1386.662,454.15c14.35,0,25.83,11.479,25.83,25.83s-11.48,25.83-25.83,25.83-25.831-11.48-25.831-25.83,11.48-25.83,25.831-25.83ZM1386.662,511.551c14.35,0,25.83,11.479,25.83,25.83s-11.48,25.83-25.83,25.83-25.831-11.48-25.831-25.83,11.48-25.83,25.831-25.83ZM1386.662,293.429c8.036,0,14.35,6.314,14.35,14.35s-6.313,14.35-14.35,14.35-14.351-6.314-14.351-14.35,6.314-14.35,14.351-14.35ZM1444.062,511.551c14.35,0,25.83,11.479,25.83,25.83s-11.48,25.83-25.83,25.83-25.83-11.48-25.83-25.83,11.479-25.83,25.83-25.83ZM1444.062,293.429c8.036,0,14.35,6.314,14.35,14.35s-6.313,14.35-14.35,14.35-14.351-6.314-14.351-14.35,6.314-14.35,14.351-14.35ZM1501.463,281.949c14.35,0,25.83,11.48,25.83,25.83s-11.48,25.83-25.83,25.83-25.83-11.48-25.83-25.83,11.479-25.83,25.83-25.83ZM1501.463,511.551c14.35,0,25.83,11.479,25.83,25.83s-11.48,25.83-25.83,25.83-25.83-11.48-25.83-25.83,11.479-25.83,25.83-25.83ZM1558.863,293.429c8.036,0,14.35,6.314,14.35,14.35s-6.313,14.35-14.35,14.35-14.351-6.314-14.351-14.35,6.314-14.35,14.351-14.35ZM1558.863,350.829c8.036,0,14.35,6.314,14.35,14.35s-6.313,14.351-14.35,14.351-14.351-6.314-14.351-14.351,6.314-14.35,14.351-14.35Z" fill="#231f20"/><path d="M1661.603,339.349c14.351,0,25.83,11.48,25.83,25.83s-11.479,25.83-25.83,25.83-25.83-11.479-25.83-25.83,11.48-25.83,25.83-25.83ZM1661.603,396.749c14.351,0,25.83,11.48,25.83,25.83s-11.479,25.831-25.83,25.831-25.83-11.48-25.83-25.831,11.48-25.83,25.83-25.83ZM1661.603,454.15c14.351,0,25.83,11.479,25.83,25.83s-11.479,25.83-25.83,25.83-25.83-11.48-25.83-25.83,11.48-25.83,25.83-25.83ZM1661.603,293.429c8.036,0,14.351,6.314,14.351,14.35s-6.314,14.35-14.351,14.35-14.35-6.314-14.35-14.35,6.313-14.35,14.35-14.35ZM1661.603,523.03c8.036,0,14.351,6.314,14.351,14.351s-6.314,14.35-14.351,14.35-14.35-6.313-14.35-14.35,6.313-14.351,14.35-14.351ZM1719.003,281.949c14.351,0,25.83,11.48,25.83,25.83s-11.479,25.83-25.83,25.83-25.83-11.48-25.83-25.83,11.48-25.83,25.83-25.83ZM1719.003,339.349c14.351,0,25.83,11.48,25.83,25.83s-11.479,25.83-25.83,25.83-25.83-11.479-25.83-25.83,11.48-25.83,25.83-25.83ZM1719.003,396.749c14.351,0,25.83,11.48,25.83,25.83s-11.479,25.831-25.83,25.831-25.83-11.48-25.83-25.831,11.48-25.83,25.83-25.83ZM1719.003,454.15c14.351,0,25.83,11.479,25.83,25.83s-11.479,25.83-25.83,25.83-25.83-11.48-25.83-25.83,11.48-25.83,25.83-25.83ZM1719.003,511.551c14.351,0,25.83,11.479,25.83,25.83s-11.479,25.83-25.83,25.83-25.83-11.48-25.83-25.83,11.48-25.83,25.83-25.83ZM1776.403,281.949c14.351,0,25.831,11.48,25.831,25.83s-11.48,25.83-25.831,25.83-25.83-11.48-25.83-25.83,11.48-25.83,25.83-25.83ZM1776.403,511.551c14.351,0,25.831,11.479,25.831,25.83s-11.48,25.83-25.831,25.83-25.83-11.48-25.83-25.83,11.48-25.83,25.83-25.83ZM1833.805,281.949c14.35,0,25.83,11.48,25.83,25.83s-11.48,25.83-25.83,25.83-25.831-11.48-25.831-25.83,11.48-25.83,25.831-25.83ZM1833.805,511.551c14.35,0,25.83,11.479,25.83,25.83s-11.48,25.83-25.83,25.83-25.831-11.48-25.831-25.83,11.48-25.83,25.831-25.83ZM1891.205,281.949c14.35,0,25.83,11.48,25.83,25.83s-11.48,25.83-25.83,25.83-25.83-11.48-25.83-25.83,11.479-25.83,25.83-25.83ZM1891.205,511.551c14.35,0,25.83,11.479,25.83,25.83s-11.48,25.83-25.83,25.83-25.83-11.48-25.83-25.83,11.479-25.83,25.83-25.83ZM1948.605,281.949c14.35,0,25.83,11.48,25.83,25.83s-11.48,25.83-25.83,25.83-25.83-11.48-25.83-25.83,11.479-25.83,25.83-25.83ZM1948.605,511.551c14.35,0,25.83,11.479,25.83,25.83s-11.48,25.83-25.83,25.83-25.83-11.48-25.83-25.83,11.479-25.83,25.83-25.83ZM2006.006,293.429c8.036,0,14.35,6.314,14.35,14.35s-6.313,14.35-14.35,14.35-14.351-6.314-14.351-14.35,6.314-14.35,14.351-14.35ZM2006.006,350.829c8.036,0,14.35,6.314,14.35,14.35s-6.313,14.351-14.35,14.351-14.351-6.314-14.351-14.351,6.314-14.35,14.351-14.35ZM2006.006,465.63c8.036,0,14.35,6.314,14.35,14.351s-6.313,14.35-14.35,14.35-14.351-6.313-14.351-14.35,6.314-14.351,14.351-14.351ZM2006.006,523.03c8.036,0,14.35,6.314,14.35,14.351s-6.313,14.35-14.35,14.35-14.351-6.313-14.351-14.35,6.314-14.351,14.351-14.351Z" fill="#231f20"/><path d="M2108.745,167.147c14.351,0,25.83,11.48,25.83,25.83s-11.479,25.831-25.83,25.831-25.83-11.48-25.83-25.831,11.48-25.83,25.83-25.83ZM2108.745,224.548c14.351,0,25.83,11.48,25.83,25.831s-11.479,25.83-25.83,25.83-25.83-11.48-25.83-25.83,11.48-25.831,25.83-25.831ZM2108.745,281.949c14.351,0,25.83,11.48,25.83,25.83s-11.479,25.83-25.83,25.83-25.83-11.48-25.83-25.83,11.48-25.83,25.83-25.83ZM2108.745,339.349c14.351,0,25.83,11.48,25.83,25.83s-11.479,25.83-25.83,25.83-25.83-11.479-25.83-25.83,11.48-25.83,25.83-25.83ZM2108.745,396.749c14.351,0,25.83,11.48,25.83,25.83s-11.479,25.831-25.83,25.831-25.83-11.48-25.83-25.831,11.48-25.83,25.83-25.83ZM2108.745,454.15c14.351,0,25.83,11.479,25.83,25.83s-11.479,25.83-25.83,25.83-25.83-11.48-25.83-25.83,11.48-25.83,25.83-25.83ZM2108.745,511.551c14.351,0,25.83,11.479,25.83,25.83s-11.479,25.83-25.83,25.83-25.83-11.48-25.83-25.83,11.48-25.83,25.83-25.83ZM2166.146,224.548c14.351,0,25.83,11.48,25.83,25.831s-11.479,25.83-25.83,25.83-25.83-11.48-25.83-25.83,11.48-25.831,25.83-25.831ZM2166.146,281.949c14.351,0,25.83,11.48,25.83,25.83s-11.479,25.83-25.83,25.83-25.83-11.48-25.83-25.83,11.48-25.83,25.83-25.83ZM2166.146,339.349c14.351,0,25.83,11.48,25.83,25.83s-11.479,25.83-25.83,25.83-25.83-11.479-25.83-25.83,11.48-25.83,25.83-25.83ZM2166.146,396.749c14.351,0,25.83,11.48,25.83,25.83s-11.479,25.831-25.83,25.831-25.83-11.48-25.83-25.831,11.48-25.83,25.83-25.83ZM2166.146,454.15c14.351,0,25.83,11.479,25.83,25.83s-11.479,25.83-25.83,25.83-25.83-11.48-25.83-25.83,11.48-25.83,25.83-25.83ZM2166.146,178.627c8.036,0,14.351,6.314,14.351,14.35s-6.314,14.35-14.351,14.35-14.35-6.314-14.35-14.35,6.313-14.35,14.35-14.35ZM2166.146,523.03c8.036,0,14.351,6.314,14.351,14.351s-6.314,14.35-14.351,14.35-14.35-6.313-14.35-14.35,6.313-14.351,14.35-14.351ZM2223.546,293.429c8.036,0,14.351,6.314,14.351,14.35s-6.314,14.35-14.351,14.35-14.35-6.314-14.35-14.35,6.314-14.35,14.35-14.35ZM2280.947,281.949c14.35,0,25.83,11.48,25.83,25.83s-11.48,25.83-25.83,25.83-25.831-11.48-25.831-25.83,11.48-25.83,25.831-25.83ZM2338.348,281.949c14.35,0,25.83,11.48,25.83,25.83s-11.48,25.83-25.83,25.83-25.83-11.48-25.83-25.83,11.479-25.83,25.83-25.83ZM2395.748,281.949c14.35,0,25.83,11.48,25.83,25.83s-11.48,25.83-25.83,25.83-25.83-11.48-25.83-25.83,11.479-25.83,25.83-25.83ZM2395.748,339.349c14.35,0,25.83,11.48,25.83,25.83s-11.48,25.83-25.83,25.83-25.83-11.479-25.83-25.83,11.479-25.83,25.83-25.83ZM2395.748,396.749c14.35,0,25.83,11.48,25.83,25.83s-11.48,25.831-25.83,25.831-25.83-11.48-25.83-25.831,11.479-25.83,25.83-25.83ZM2395.748,454.15c14.35,0,25.83,11.479,25.83,25.83s-11.48,25.83-25.83,25.83-25.83-11.48-25.83-25.83,11.479-25.83,25.83-25.83ZM2395.748,523.03c8.036,0,14.35,6.314,14.35,14.351s-6.313,14.35-14.35,14.35-14.351-6.313-14.351-14.35,6.314-14.351,14.351-14.351ZM2453.148,339.349c14.35,0,25.83,11.48,25.83,25.83s-11.48,25.83-25.83,25.83-25.83-11.479-25.83-25.83,11.479-25.83,25.83-25.83ZM2453.148,396.749c14.35,0,25.83,11.48,25.83,25.83s-11.48,25.831-25.83,25.831-25.83-11.48-25.83-25.831,11.479-25.83,25.83-25.83ZM2453.148,454.15c14.35,0,25.83,11.479,25.83,25.83s-11.48,25.83-25.83,25.83-25.83-11.48-25.83-25.83,11.479-25.83,25.83-25.83ZM2453.148,511.551c14.35,0,25.83,11.479,25.83,25.83s-11.48,25.83-25.83,25.83-25.83-11.48-25.83-25.83,11.479-25.83,25.83-25.83ZM2453.148,293.429c8.036,0,14.35,6.314,14.35,14.35s-6.313,14.35-14.35,14.35-14.351-6.314-14.351-14.35,6.314-14.35,14.351-14.35Z" fill="#231f20"/><path d="M2555.888,511.551c14.351,0,25.83,11.479,25.83,25.83s-11.479,25.83-25.83,25.83-25.83-11.48-25.83-25.83,11.48-25.83,25.83-25.83ZM2613.288,281.949c14.351,0,25.83,11.48,25.83,25.83s-11.479,25.83-25.83,25.83-25.83-11.48-25.83-25.83,11.48-25.83,25.83-25.83ZM2613.288,511.551c14.351,0,25.83,11.479,25.83,25.83s-11.479,25.83-25.83,25.83-25.83-11.48-25.83-25.83,11.48-25.83,25.83-25.83ZM2670.688,281.949c14.351,0,25.831,11.48,25.831,25.83s-11.48,25.83-25.831,25.83-25.83-11.48-25.83-25.83,11.48-25.83,25.83-25.83ZM2670.688,511.551c14.351,0,25.831,11.479,25.831,25.83s-11.48,25.83-25.831,25.83-25.83-11.48-25.83-25.83,11.48-25.83,25.83-25.83ZM2728.09,167.147c14.35,0,25.83,11.48,25.83,25.83s-11.48,25.831-25.83,25.831-25.831-11.48-25.831-25.831,11.48-25.83,25.831-25.83ZM2728.09,281.949c14.35,0,25.83,11.48,25.83,25.83s-11.48,25.83-25.83,25.83-25.831-11.48-25.831-25.83,11.48-25.83,25.831-25.83ZM2728.09,339.349c14.35,0,25.83,11.48,25.83,25.83s-11.48,25.83-25.83,25.83-25.831-11.479-25.831-25.83,11.48-25.83,25.831-25.83ZM2728.09,396.749c14.35,0,25.83,11.48,25.83,25.83s-11.48,25.831-25.83,25.831-25.831-11.48-25.831-25.831,11.48-25.83,25.831-25.83ZM2728.09,454.15c14.35,0,25.83,11.479,25.83,25.83s-11.48,25.83-25.83,25.83-25.831-11.48-25.831-25.83,11.48-25.83,25.831-25.83ZM2728.09,511.551c14.35,0,25.83,11.479,25.83,25.83s-11.48,25.83-25.83,25.83-25.831-11.48-25.831-25.83,11.48-25.83,25.831-25.83ZM2785.49,167.147c14.35,0,25.83,11.48,25.83,25.83s-11.48,25.831-25.83,25.831-25.83-11.48-25.83-25.831,11.479-25.83,25.83-25.83ZM2785.49,339.349c14.35,0,25.83,11.48,25.83,25.83s-11.48,25.83-25.83,25.83-25.83-11.479-25.83-25.83,11.479-25.83,25.83-25.83ZM2785.49,396.749c14.35,0,25.83,11.48,25.83,25.83s-11.48,25.831-25.83,25.831-25.83-11.48-25.83-25.831,11.479-25.83,25.83-25.83ZM2785.49,454.15c14.35,0,25.83,11.479,25.83,25.83s-11.48,25.83-25.83,25.83-25.83-11.48-25.83-25.83,11.479-25.83,25.83-25.83ZM2785.49,511.551c14.35,0,25.83,11.479,25.83,25.83s-11.48,25.83-25.83,25.83-25.83-11.48-25.83-25.83,11.479-25.83,25.83-25.83ZM2785.49,293.429c8.036,0,14.35,6.314,14.35,14.35s-6.313,14.35-14.35,14.35-14.351-6.314-14.351-14.35,6.314-14.35,14.351-14.35ZM2842.891,511.551c14.35,0,25.83,11.479,25.83,25.83s-11.48,25.83-25.83,25.83-25.83-11.48-25.83-25.83,11.479-25.83,25.83-25.83ZM2900.291,511.551c14.35,0,25.83,11.479,25.83,25.83s-11.48,25.83-25.83,25.83-25.83-11.48-25.83-25.83,11.479-25.83,25.83-25.83Z" fill="#231f20"/><path d="M3003.03,339.349c14.351,0,25.83,11.48,25.83,25.83s-11.479,25.83-25.83,25.83-25.83-11.479-25.83-25.83,11.48-25.83,25.83-25.83ZM3003.03,293.429c8.036,0,14.351,6.314,14.351,14.35s-6.314,14.35-14.351,14.35-14.35-6.314-14.35-14.35,6.313-14.35,14.35-14.35ZM3003.03,408.229c8.036,0,14.351,6.314,14.351,14.35s-6.314,14.351-14.351,14.351-14.35-6.314-14.35-14.351,6.313-14.35,14.35-14.35ZM3060.431,396.749c14.351,0,25.83,11.48,25.83,25.83s-11.479,25.831-25.83,25.831-25.83-11.48-25.83-25.831,11.48-25.83,25.83-25.83ZM3060.431,350.829c8.036,0,14.351,6.314,14.351,14.35s-6.314,14.351-14.351,14.351-14.35-6.314-14.35-14.351,6.313-14.35,14.35-14.35ZM3060.431,465.63c8.036,0,14.351,6.314,14.351,14.351s-6.314,14.35-14.351,14.35-14.35-6.313-14.35-14.35,6.313-14.351,14.35-14.351ZM3117.831,454.15c14.351,0,25.831,11.479,25.831,25.83s-11.48,25.83-25.831,25.83-25.83-11.48-25.83-25.83,11.48-25.83,25.83-25.83ZM3117.831,408.229c8.036,0,14.351,6.314,14.351,14.35s-6.314,14.351-14.351,14.351-14.35-6.314-14.35-14.351,6.314-14.35,14.35-14.35ZM3117.831,523.03c8.036,0,14.351,6.314,14.351,14.351s-6.314,14.35-14.351,14.35-14.35-6.313-14.35-14.35,6.314-14.351,14.35-14.351ZM3175.232,511.551c14.35,0,25.83,11.479,25.83,25.83s-11.48,25.83-25.83,25.83-25.831-11.48-25.831-25.83,11.48-25.83,25.831-25.83ZM3175.232,465.63c8.036,0,14.35,6.314,14.35,14.351s-6.313,14.35-14.35,14.35-14.351-6.313-14.351-14.35,6.314-14.351,14.351-14.351ZM3232.633,454.15c14.35,0,25.83,11.479,25.83,25.83s-11.48,25.83-25.83,25.83-25.83-11.48-25.83-25.83,11.479-25.83,25.83-25.83ZM3232.633,408.229c8.036,0,14.35,6.314,14.35,14.35s-6.313,14.351-14.35,14.351-14.351-6.314-14.351-14.351,6.314-14.35,14.351-14.35ZM3232.633,523.03c8.036,0,14.35,6.314,14.35,14.351s-6.313,14.35-14.35,14.35-14.351-6.313-14.351-14.35,6.314-14.351,14.351-14.351ZM3290.033,396.749c14.35,0,25.83,11.48,25.83,25.83s-11.48,25.831-25.83,25.831-25.83-11.48-25.83-25.831,11.479-25.83,25.83-25.83ZM3290.033,350.829c8.036,0,14.35,6.314,14.35,14.35s-6.313,14.351-14.35,14.351-14.351-6.314-14.351-14.351,6.314-14.35,14.351-14.35ZM3290.033,465.63c8.036,0,14.35,6.314,14.35,14.351s-6.313,14.35-14.35,14.35-14.351-6.313-14.351-14.35,6.314-14.351,14.351-14.351ZM3347.434,339.349c14.35,0,25.83,11.48,25.83,25.83s-11.48,25.83-25.83,25.83-25.83-11.479-25.83-25.83,11.479-25.83,25.83-25.83ZM3347.434,293.429c8.036,0,14.35,6.314,14.35,14.35s-6.313,14.35-14.35,14.35-14.351-6.314-14.351-14.35,6.314-14.35,14.351-14.35ZM3347.434,408.229c8.036,0,14.35,6.314,14.35,14.35s-6.313,14.351-14.35,14.351-14.351-6.314-14.351-14.351,6.314-14.35,14.351-14.35Z" fill="#231f20"/><path d="M3450.174,339.349c14.351,0,25.83,11.48,25.83,25.83s-11.479,25.83-25.83,25.83-25.83-11.479-25.83-25.83,11.48-25.83,25.83-25.83ZM3450.174,396.749c14.351,0,25.83,11.48,25.83,25.83s-11.479,25.831-25.83,25.831-25.83-11.48-25.83-25.831,11.48-25.83,25.83-25.83ZM3450.174,454.15c14.351,0,25.83,11.479,25.83,25.83s-11.479,25.83-25.83,25.83-25.83-11.48-25.83-25.83,11.48-25.83,25.83-25.83ZM3450.174,293.429c8.036,0,14.351,6.314,14.351,14.35s-6.314,14.35-14.351,14.35-14.35-6.314-14.35-14.35,6.313-14.35,14.35-14.35ZM3450.174,523.03c8.036,0,14.351,6.314,14.351,14.351s-6.314,14.35-14.351,14.35-14.35-6.313-14.35-14.35,6.313-14.351,14.35-14.351ZM3507.574,281.949c14.351,0,25.83,11.48,25.83,25.83s-11.479,25.83-25.83,25.83-25.83-11.48-25.83-25.83,11.48-25.83,25.83-25.83ZM3507.574,339.349c14.351,0,25.83,11.48,25.83,25.83s-11.479,25.83-25.83,25.83-25.83-11.479-25.83-25.83,11.48-25.83,25.83-25.83ZM3507.574,396.749c14.351,0,25.83,11.48,25.83,25.83s-11.479,25.831-25.83,25.831-25.83-11.48-25.83-25.831,11.48-25.83,25.83-25.83ZM3507.574,454.15c14.351,0,25.83,11.479,25.83,25.83s-11.479,25.83-25.83,25.83-25.83-11.48-25.83-25.83,11.48-25.83,25.83-25.83ZM3507.574,511.551c14.351,0,25.83,11.479,25.83,25.83s-11.479,25.83-25.83,25.83-25.83-11.48-25.83-25.83,11.48-25.83,25.83-25.83ZM3564.975,281.949c14.351,0,25.831,11.48,25.831,25.83s-11.48,25.83-25.831,25.83-25.83-11.48-25.83-25.83,11.48-25.83,25.83-25.83ZM3564.975,396.749c14.351,0,25.831,11.48,25.831,25.83s-11.48,25.831-25.831,25.831-25.83-11.48-25.83-25.831,11.48-25.83,25.83-25.83ZM3564.975,511.551c14.351,0,25.831,11.479,25.831,25.83s-11.48,25.83-25.831,25.83-25.83-11.48-25.83-25.83,11.48-25.83,25.83-25.83ZM3622.376,281.949c14.35,0,25.83,11.48,25.83,25.83s-11.48,25.83-25.83,25.83-25.831-11.48-25.831-25.83,11.48-25.83,25.831-25.83ZM3622.376,396.749c14.35,0,25.83,11.48,25.83,25.83s-11.48,25.831-25.83,25.831-25.831-11.48-25.831-25.831,11.48-25.83,25.831-25.83ZM3622.376,511.551c14.35,0,25.83,11.479,25.83,25.83s-11.48,25.83-25.83,25.83-25.831-11.48-25.831-25.83,11.48-25.83,25.831-25.83ZM3679.776,281.949c14.35,0,25.83,11.48,25.83,25.83s-11.48,25.83-25.83,25.83-25.83-11.48-25.83-25.83,11.479-25.83,25.83-25.83ZM3679.776,396.749c14.35,0,25.83,11.48,25.83,25.83s-11.48,25.831-25.83,25.831-25.83-11.48-25.83-25.831,11.479-25.83,25.83-25.83ZM3679.776,511.551c14.35,0,25.83,11.479,25.83,25.83s-11.48,25.83-25.83,25.83-25.83-11.48-25.83-25.83,11.479-25.83,25.83-25.83ZM3737.177,281.949c14.35,0,25.83,11.48,25.83,25.83s-11.48,25.83-25.83,25.83-25.83-11.48-25.83-25.83,11.479-25.83,25.83-25.83ZM3737.177,339.349c14.35,0,25.83,11.48,25.83,25.83s-11.48,25.83-25.83,25.83-25.83-11.479-25.83-25.83,11.479-25.83,25.83-25.83ZM3737.177,396.749c14.35,0,25.83,11.48,25.83,25.83s-11.48,25.831-25.83,25.831-25.83-11.48-25.83-25.831,11.479-25.83,25.83-25.83ZM3737.177,511.551c14.35,0,25.83,11.479,25.83,25.83s-11.48,25.83-25.83,25.83-25.83-11.48-25.83-25.83,11.479-25.83,25.83-25.83ZM3794.577,339.349c14.35,0,25.83,11.48,25.83,25.83s-11.48,25.83-25.83,25.83-25.83-11.479-25.83-25.83,11.479-25.83,25.83-25.83ZM3794.577,293.429c8.036,0,14.35,6.314,14.35,14.35s-6.313,14.35-14.35,14.35-14.351-6.314-14.351-14.35,6.314-14.35,14.351-14.35ZM3794.577,408.229c8.036,0,14.35,6.314,14.35,14.35s-6.313,14.351-14.35,14.351-14.351-6.314-14.351-14.351,6.314-14.35,14.351-14.35ZM3794.577,465.63c8.036,0,14.35,6.314,14.35,14.351s-6.313,14.35-14.35,14.35-14.351-6.313-14.351-14.35,6.314-14.351,14.351-14.351ZM3794.577,523.03c8.036,0,14.35,6.314,14.35,14.351s-6.313,14.35-14.35,14.35-14.351-6.313-14.351-14.35,6.314-14.351,14.351-14.351Z" fill="#231f20"/><path d="M3897.316,224.548c14.351,0,25.83,11.48,25.83,25.831s-11.479,25.83-25.83,25.83-25.83-11.48-25.83-25.83,11.48-25.831,25.83-25.831ZM3897.316,281.949c14.351,0,25.83,11.48,25.83,25.83s-11.479,25.83-25.83,25.83-25.83-11.48-25.83-25.83,11.48-25.83,25.83-25.83ZM3897.316,339.349c14.351,0,25.83,11.48,25.83,25.83s-11.479,25.83-25.83,25.83-25.83-11.479-25.83-25.83,11.48-25.83,25.83-25.83ZM3897.316,396.749c14.351,0,25.83,11.48,25.83,25.83s-11.479,25.831-25.83,25.831-25.83-11.48-25.83-25.831,11.48-25.83,25.83-25.83ZM3897.316,454.15c14.351,0,25.83,11.479,25.83,25.83s-11.479,25.83-25.83,25.83-25.83-11.48-25.83-25.83,11.48-25.83,25.83-25.83ZM3897.316,178.627c8.036,0,14.351,6.314,14.351,14.35s-6.314,14.35-14.351,14.35-14.35-6.314-14.35-14.35,6.313-14.35,14.35-14.35ZM3897.316,523.03c8.036,0,14.351,6.314,14.351,14.351s-6.314,14.35-14.351,14.35-14.35-6.313-14.35-14.35,6.313-14.351,14.35-14.351ZM3954.717,167.147c14.351,0,25.83,11.48,25.83,25.83s-11.479,25.831-25.83,25.831-25.83-11.48-25.83-25.831,11.48-25.83,25.83-25.83ZM3954.717,224.548c14.351,0,25.83,11.48,25.83,25.831s-11.479,25.83-25.83,25.83-25.83-11.48-25.83-25.83,11.48-25.831,25.83-25.831ZM3954.717,281.949c14.351,0,25.83,11.48,25.83,25.83s-11.479,25.83-25.83,25.83-25.83-11.48-25.83-25.83,11.48-25.83,25.83-25.83ZM3954.717,339.349c14.351,0,25.83,11.48,25.83,25.83s-11.479,25.83-25.83,25.83-25.83-11.479-25.83-25.83,11.48-25.83,25.83-25.83ZM3954.717,396.749c14.351,0,25.83,11.48,25.83,25.83s-11.479,25.831-25.83,25.831-25.83-11.48-25.83-25.831,11.48-25.83,25.83-25.83ZM3954.717,454.15c14.351,0,25.83,11.479,25.83,25.83s-11.479,25.83-25.83,25.83-25.83-11.48-25.83-25.83,11.48-25.83,25.83-25.83ZM3954.717,511.551c14.351,0,25.83,11.479,25.83,25.83s-11.479,25.83-25.83,25.83-25.83-11.48-25.83-25.83,11.48-25.83,25.83-25.83ZM4012.117,167.147c14.351,0,25.831,11.48,25.831,25.83s-11.48,25.831-25.831,25.831-25.83-11.48-25.83-25.831,11.48-25.83,25.83-25.83ZM4012.117,511.551c14.351,0,25.831,11.479,25.831,25.83s-11.48,25.83-25.831,25.83-25.83-11.48-25.83-25.83,11.48-25.83,25.83-25.83ZM4069.519,167.147c14.35,0,25.83,11.48,25.83,25.83s-11.48,25.831-25.83,25.831-25.831-11.48-25.831-25.831,11.48-25.83,25.831-25.83ZM4069.519,511.551c14.35,0,25.83,11.479,25.83,25.83s-11.48,25.83-25.83,25.83-25.831-11.48-25.831-25.83,11.48-25.83,25.831-25.83ZM4126.919,167.147c14.35,0,25.83,11.48,25.83,25.83s-11.48,25.831-25.83,25.831-25.83-11.48-25.83-25.831,11.479-25.83,25.83-25.83ZM4126.919,511.551c14.35,0,25.83,11.479,25.83,25.83s-11.48,25.83-25.83,25.83-25.83-11.48-25.83-25.83,11.479-25.83,25.83-25.83ZM4184.319,167.147c14.35,0,25.83,11.48,25.83,25.83s-11.48,25.831-25.83,25.831-25.83-11.48-25.83-25.831,11.479-25.83,25.83-25.83ZM4184.319,224.548c14.35,0,25.83,11.48,25.83,25.831s-11.48,25.83-25.83,25.83-25.83-11.48-25.83-25.83,11.479-25.831,25.83-25.831ZM4184.319,281.949c14.35,0,25.83,11.48,25.83,25.83s-11.48,25.83-25.83,25.83-25.83-11.48-25.83-25.83,11.479-25.83,25.83-25.83ZM4184.319,339.349c14.35,0,25.83,11.48,25.83,25.83s-11.48,25.83-25.83,25.83-25.83-11.479-25.83-25.83,11.479-25.83,25.83-25.83ZM4184.319,396.749c14.35,0,25.83,11.48,25.83,25.83s-11.48,25.831-25.83,25.831-25.83-11.48-25.83-25.831,11.479-25.83,25.83-25.83ZM4184.319,454.15c14.35,0,25.83,11.479,25.83,25.83s-11.48,25.83-25.83,25.83-25.83-11.48-25.83-25.83,11.479-25.83,25.83-25.83ZM4184.319,511.551c14.35,0,25.83,11.479,25.83,25.83s-11.48,25.83-25.83,25.83-25.83-11.48-25.83-25.83,11.479-25.83,25.83-25.83ZM4241.72,224.548c14.35,0,25.83,11.48,25.83,25.831s-11.48,25.83-25.83,25.83-25.83-11.48-25.83-25.83,11.479-25.831,25.83-25.831ZM4241.72,281.949c14.35,0,25.83,11.48,25.83,25.83s-11.48,25.83-25.83,25.83-25.83-11.48-25.83-25.83,11.479-25.83,25.83-25.83ZM4241.72,339.349c14.35,0,25.83,11.48,25.83,25.83s-11.48,25.83-25.83,25.83-25.83-11.479-25.83-25.83,11.479-25.83,25.83-25.83ZM4241.72,396.749c14.35,0,25.83,11.48,25.83,25.83s-11.48,25.831-25.83,25.831-25.83-11.48-25.83-25.831,11.479-25.83,25.83-25.83ZM4241.72,454.15c14.35,0,25.83,11.479,25.83,25.83s-11.48,25.83-25.83,25.83-25.83-11.48-25.83-25.83,11.479-25.83,25.83-25.83ZM4241.72,178.627c8.036,0,14.35,6.314,14.35,14.35s-6.313,14.35-14.35,14.35-14.351-6.314-14.351-14.35,6.314-14.35,14.351-14.35ZM4241.72,523.03c8.036,0,14.35,6.314,14.35,14.351s-6.313,14.35-14.35,14.35-14.351-6.313-14.351-14.35,6.314-14.351,14.351-14.351Z" fill="#231f20"/><path d="M4344.459,281.949c14.351,0,25.83,11.48,25.83,25.83s-11.479,25.83-25.83,25.83-25.83-11.48-25.83-25.83,11.48-25.83,25.83-25.83ZM4344.459,511.551c14.351,0,25.83,11.479,25.83,25.83s-11.479,25.83-25.83,25.83-25.83-11.48-25.83-25.83,11.48-25.83,25.83-25.83ZM4401.859,281.949c14.351,0,25.83,11.48,25.83,25.83s-11.479,25.83-25.83,25.83-25.83-11.48-25.83-25.83,11.48-25.83,25.83-25.83ZM4401.859,511.551c14.351,0,25.83,11.479,25.83,25.83s-11.479,25.83-25.83,25.83-25.83-11.48-25.83-25.83,11.48-25.83,25.83-25.83ZM4459.26,281.949c14.351,0,25.831,11.48,25.831,25.83s-11.48,25.83-25.831,25.83-25.83-11.48-25.83-25.83,11.48-25.83,25.83-25.83ZM4459.26,339.349c14.351,0,25.831,11.48,25.831,25.83s-11.48,25.83-25.831,25.83-25.83-11.479-25.83-25.83,11.48-25.83,25.83-25.83ZM4459.26,396.749c14.351,0,25.831,11.48,25.831,25.83s-11.48,25.831-25.831,25.831-25.83-11.48-25.83-25.831,11.48-25.83,25.83-25.83ZM4459.26,454.15c14.351,0,25.831,11.479,25.831,25.83s-11.48,25.83-25.831,25.83-25.83-11.48-25.83-25.83,11.48-25.83,25.83-25.83ZM4459.26,511.551c14.351,0,25.831,11.479,25.831,25.83s-11.48,25.83-25.831,25.83-25.83-11.48-25.83-25.83,11.48-25.83,25.83-25.83ZM4516.661,339.349c14.35,0,25.83,11.48,25.83,25.83s-11.48,25.83-25.83,25.83-25.831-11.479-25.831-25.83,11.48-25.83,25.831-25.83ZM4516.661,396.749c14.35,0,25.83,11.48,25.83,25.83s-11.48,25.831-25.83,25.831-25.831-11.48-25.831-25.831,11.48-25.83,25.831-25.83ZM4516.661,454.15c14.35,0,25.83,11.479,25.83,25.83s-11.48,25.83-25.83,25.83-25.831-11.48-25.831-25.83,11.48-25.83,25.831-25.83ZM4516.661,511.551c14.35,0,25.83,11.479,25.83,25.83s-11.48,25.83-25.83,25.83-25.831-11.48-25.831-25.83,11.48-25.83,25.831-25.83ZM4516.661,293.429c8.035,0,14.35,6.314,14.35,14.35s-6.314,14.35-14.35,14.35-14.351-6.314-14.351-14.35,6.314-14.35,14.351-14.35ZM4574.062,511.551c14.35,0,25.83,11.479,25.83,25.83s-11.48,25.83-25.83,25.83-25.83-11.48-25.83-25.83,11.479-25.83,25.83-25.83ZM4574.062,293.429c8.036,0,14.35,6.314,14.35,14.35s-6.313,14.35-14.35,14.35-14.351-6.314-14.351-14.35,6.314-14.35,14.351-14.35ZM4631.462,281.949c14.35,0,25.83,11.48,25.83,25.83s-11.48,25.83-25.83,25.83-25.83-11.48-25.83-25.83,11.479-25.83,25.83-25.83ZM4631.462,511.551c14.35,0,25.83,11.479,25.83,25.83s-11.48,25.83-25.83,25.83-25.83-11.48-25.83-25.83,11.479-25.83,25.83-25.83ZM4688.862,293.429c8.036,0,14.35,6.314,14.35,14.35s-6.313,14.35-14.35,14.35-14.351-6.314-14.351-14.35,6.314-14.35,14.351-14.35ZM4688.862,350.829c8.036,0,14.35,6.314,14.35,14.35s-6.313,14.351-14.35,14.351-14.351-6.314-14.351-14.351,6.314-14.35,14.351-14.35Z" fill="#231f20"/><path d="M4791.602,339.349c14.351,0,25.83,11.48,25.83,25.83s-11.479,25.83-25.83,25.83-25.83-11.479-25.83-25.83,11.48-25.83,25.83-25.83ZM4791.602,396.749c14.351,0,25.83,11.48,25.83,25.83s-11.479,25.831-25.83,25.831-25.83-11.48-25.83-25.831,11.48-25.83,25.83-25.83ZM4791.602,454.15c14.351,0,25.83,11.479,25.83,25.83s-11.479,25.83-25.83,25.83-25.83-11.48-25.83-25.83,11.48-25.83,25.83-25.83ZM4791.602,293.429c8.036,0,14.351,6.314,14.351,14.35s-6.314,14.35-14.351,14.35-14.35-6.314-14.35-14.35,6.313-14.35,14.35-14.35ZM4791.602,523.03c8.036,0,14.351,6.314,14.351,14.351s-6.314,14.35-14.351,14.35-14.35-6.313-14.35-14.35,6.313-14.351,14.35-14.351ZM4849.002,281.949c14.351,0,25.83,11.48,25.83,25.83s-11.479,25.83-25.83,25.83-25.83-11.48-25.83-25.83,11.48-25.83,25.83-25.83ZM4849.002,339.349c14.351,0,25.83,11.48,25.83,25.83s-11.479,25.83-25.83,25.83-25.83-11.479-25.83-25.83,11.48-25.83,25.83-25.83ZM4849.002,396.749c14.351,0,25.83,11.48,25.83,25.83s-11.479,25.831-25.83,25.831-25.83-11.48-25.83-25.831,11.48-25.83,25.83-25.83ZM4849.002,454.15c14.351,0,25.83,11.479,25.83,25.83s-11.479,25.83-25.83,25.83-25.83-11.48-25.83-25.83,11.48-25.83,25.83-25.83ZM4849.002,511.551c14.351,0,25.83,11.479,25.83,25.83s-11.479,25.83-25.83,25.83-25.83-11.48-25.83-25.83,11.48-25.83,25.83-25.83ZM4906.402,281.949c14.351,0,25.831,11.48,25.831,25.83s-11.48,25.83-25.831,25.83-25.83-11.48-25.83-25.83,11.48-25.83,25.83-25.83ZM4906.402,511.551c14.351,0,25.831,11.479,25.831,25.83s-11.48,25.83-25.831,25.83-25.83-11.48-25.83-25.83,11.48-25.83,25.83-25.83ZM4963.804,281.949c14.35,0,25.83,11.48,25.83,25.83s-11.48,25.83-25.83,25.83-25.831-11.48-25.831-25.83,11.48-25.83,25.831-25.83ZM4963.804,511.551c14.35,0,25.83,11.479,25.83,25.83s-11.48,25.83-25.83,25.83-25.831-11.48-25.831-25.83,11.48-25.83,25.831-25.83ZM5021.204,293.429c8.036,0,14.35,6.314,14.35,14.35s-6.313,14.35-14.35,14.35-14.351-6.314-14.351-14.35,6.314-14.35,14.351-14.35ZM5021.204,523.03c8.036,0,14.35,6.314,14.35,14.351s-6.313,14.35-14.35,14.35-14.351-6.313-14.351-14.35,6.314-14.351,14.351-14.351ZM5078.604,224.548c14.35,0,25.83,11.48,25.83,25.831s-11.48,25.83-25.83,25.83-25.83-11.48-25.83-25.83,11.479-25.831,25.83-25.831ZM5078.604,281.949c14.35,0,25.83,11.48,25.83,25.83s-11.48,25.83-25.83,25.83-25.83-11.48-25.83-25.83,11.479-25.83,25.83-25.83ZM5078.604,339.349c14.35,0,25.83,11.48,25.83,25.83s-11.48,25.83-25.83,25.83-25.83-11.479-25.83-25.83,11.479-25.83,25.83-25.83ZM5078.604,396.749c14.35,0,25.83,11.48,25.83,25.83s-11.48,25.831-25.83,25.831-25.83-11.48-25.83-25.831,11.479-25.83,25.83-25.83ZM5078.604,454.15c14.35,0,25.83,11.479,25.83,25.83s-11.48,25.83-25.83,25.83-25.83-11.48-25.83-25.83,11.479-25.83,25.83-25.83ZM5078.604,178.627c8.036,0,14.35,6.314,14.35,14.35s-6.313,14.35-14.35,14.35-14.351-6.314-14.351-14.35,6.314-14.35,14.351-14.35ZM5078.604,523.03c8.036,0,14.35,6.314,14.35,14.351s-6.313,14.35-14.35,14.35-14.351-6.313-14.351-14.35,6.314-14.351,14.351-14.351ZM5136.005,167.147c14.35,0,25.83,11.48,25.83,25.83s-11.48,25.831-25.83,25.831-25.83-11.48-25.83-25.831,11.479-25.83,25.83-25.83ZM5136.005,224.548c14.35,0,25.83,11.48,25.83,25.831s-11.48,25.83-25.83,25.83-25.83-11.48-25.83-25.83,11.479-25.831,25.83-25.831ZM5136.005,281.949c14.35,0,25.83,11.48,25.83,25.83s-11.48,25.83-25.83,25.83-25.83-11.48-25.83-25.83,11.479-25.83,25.83-25.83ZM5136.005,339.349c14.35,0,25.83,11.48,25.83,25.83s-11.48,25.83-25.83,25.83-25.83-11.479-25.83-25.83,11.479-25.83,25.83-25.83ZM5136.005,396.749c14.35,0,25.83,11.48,25.83,25.83s-11.48,25.831-25.83,25.831-25.83-11.48-25.83-25.831,11.479-25.83,25.83-25.83ZM5136.005,454.15c14.35,0,25.83,11.479,25.83,25.83s-11.48,25.83-25.83,25.83-25.83-11.48-25.83-25.83,11.479-25.83,25.83-25.83ZM5136.005,511.551c14.35,0,25.83,11.479,25.83,25.83s-11.48,25.83-25.83,25.83-25.83-11.48-25.83-25.83,11.479-25.83,25.83-25.83Z" fill="#231f20"/><path d="M5238.744,339.349c14.351,0,25.83,11.48,25.83,25.83s-11.479,25.83-25.83,25.83-25.83-11.479-25.83-25.83,11.48-25.83,25.83-25.83ZM5238.744,396.749c14.351,0,25.83,11.48,25.83,25.83s-11.479,25.831-25.83,25.831-25.83-11.48-25.83-25.831,11.48-25.83,25.83-25.83ZM5238.744,454.15c14.351,0,25.83,11.479,25.83,25.83s-11.479,25.83-25.83,25.83-25.83-11.48-25.83-25.83,11.48-25.83,25.83-25.83ZM5238.744,293.429c8.036,0,14.351,6.314,14.351,14.35s-6.314,14.35-14.351,14.35-14.35-6.314-14.35-14.35,6.313-14.35,14.35-14.35ZM5238.744,523.03c8.036,0,14.351,6.314,14.351,14.351s-6.314,14.35-14.351,14.35-14.35-6.313-14.35-14.35,6.313-14.351,14.35-14.351ZM5296.145,281.949c14.351,0,25.83,11.48,25.83,25.83s-11.479,25.83-25.83,25.83-25.83-11.48-25.83-25.83,11.48-25.83,25.83-25.83ZM5296.145,339.349c14.351,0,25.83,11.48,25.83,25.83s-11.479,25.83-25.83,25.83-25.83-11.479-25.83-25.83,11.48-25.83,25.83-25.83ZM5296.145,396.749c14.351,0,25.83,11.48,25.83,25.83s-11.479,25.831-25.83,25.831-25.83-11.48-25.83-25.831,11.48-25.83,25.83-25.83ZM5296.145,454.15c14.351,0,25.83,11.479,25.83,25.83s-11.479,25.83-25.83,25.83-25.83-11.48-25.83-25.83,11.48-25.83,25.83-25.83ZM5296.145,511.551c14.351,0,25.83,11.479,25.83,25.83s-11.479,25.83-25.83,25.83-25.83-11.48-25.83-25.83,11.48-25.83,25.83-25.83ZM5353.545,281.949c14.351,0,25.831,11.48,25.831,25.83s-11.48,25.83-25.831,25.83-25.83-11.48-25.83-25.83,11.48-25.83,25.83-25.83ZM5353.545,396.749c14.351,0,25.831,11.48,25.831,25.83s-11.48,25.831-25.831,25.831-25.83-11.48-25.83-25.831,11.48-25.83,25.83-25.83ZM5353.545,511.551c14.351,0,25.831,11.479,25.831,25.83s-11.48,25.83-25.831,25.83-25.83-11.48-25.83-25.83,11.48-25.83,25.83-25.83ZM5410.946,281.949c14.35,0,25.83,11.48,25.83,25.83s-11.48,25.83-25.83,25.83-25.831-11.48-25.831-25.83,11.48-25.83,25.831-25.83ZM5410.946,396.749c14.35,0,25.83,11.48,25.83,25.83s-11.48,25.831-25.83,25.831-25.831-11.48-25.831-25.831,11.48-25.83,25.831-25.83ZM5410.946,511.551c14.35,0,25.83,11.479,25.83,25.83s-11.48,25.83-25.83,25.83-25.831-11.48-25.831-25.83,11.48-25.83,25.831-25.83ZM5468.347,281.949c14.35,0,25.83,11.48,25.83,25.83s-11.48,25.83-25.83,25.83-25.83-11.48-25.83-25.83,11.479-25.83,25.83-25.83ZM5468.347,396.749c14.35,0,25.83,11.48,25.83,25.83s-11.48,25.831-25.83,25.831-25.83-11.48-25.83-25.831,11.479-25.83,25.83-25.83ZM5468.347,511.551c14.35,0,25.83,11.479,25.83,25.83s-11.48,25.83-25.83,25.83-25.83-11.48-25.83-25.83,11.479-25.83,25.83-25.83ZM5525.747,281.949c14.35,0,25.83,11.48,25.83,25.83s-11.48,25.83-25.83,25.83-25.83-11.48-25.83-25.83,11.479-25.83,25.83-25.83ZM5525.747,339.349c14.35,0,25.83,11.48,25.83,25.83s-11.48,25.83-25.83,25.83-25.83-11.479-25.83-25.83,11.479-25.83,25.83-25.83ZM5525.747,396.749c14.35,0,25.83,11.48,25.83,25.83s-11.48,25.831-25.83,25.831-25.83-11.48-25.83-25.831,11.479-25.83,25.83-25.83ZM5525.747,511.551c14.35,0,25.83,11.479,25.83,25.83s-11.48,25.83-25.83,25.83-25.83-11.48-25.83-25.83,11.479-25.83,25.83-25.83ZM5583.147,339.349c14.35,0,25.83,11.48,25.83,25.83s-11.48,25.83-25.83,25.83-25.83-11.479-25.83-25.83,11.479-25.83,25.83-25.83ZM5583.147,293.429c8.036,0,14.35,6.314,14.35,14.35s-6.313,14.35-14.35,14.35-14.351-6.314-14.351-14.35,6.314-14.35,14.351-14.35ZM5583.147,408.229c8.036,0,14.35,6.314,14.35,14.35s-6.313,14.351-14.35,14.351-14.351-6.314-14.351-14.351,6.314-14.35,14.351-14.35ZM5583.147,465.63c8.036,0,14.35,6.314,14.35,14.351s-6.313,14.35-14.35,14.35-14.351-6.313-14.351-14.35,6.314-14.351,14.351-14.351ZM5583.147,523.03c8.036,0,14.35,6.314,14.35,14.351s-6.313,14.35-14.35,14.35-14.351-6.313-14.351-14.35,6.314-14.351,14.351-14.351Z" fill="#231f20"/><path d="M5685.887,281.949c14.351,0,25.83,11.48,25.83,25.83s-11.479,25.83-25.83,25.83-25.83-11.48-25.83-25.83,11.48-25.83,25.83-25.83ZM5685.887,511.551c14.351,0,25.83,11.479,25.83,25.83s-11.479,25.83-25.83,25.83-25.83-11.48-25.83-25.83,11.48-25.83,25.83-25.83ZM5743.287,281.949c14.351,0,25.83,11.48,25.83,25.83s-11.479,25.83-25.83,25.83-25.83-11.48-25.83-25.83,11.48-25.83,25.83-25.83ZM5743.287,511.551c14.351,0,25.83,11.479,25.83,25.83s-11.479,25.83-25.83,25.83-25.83-11.48-25.83-25.83,11.48-25.83,25.83-25.83ZM5800.688,281.949c14.351,0,25.831,11.48,25.831,25.83s-11.48,25.83-25.831,25.83-25.83-11.48-25.83-25.83,11.48-25.83,25.83-25.83ZM5800.688,339.349c14.351,0,25.831,11.48,25.831,25.83s-11.48,25.83-25.831,25.83-25.83-11.479-25.83-25.83,11.48-25.83,25.83-25.83ZM5800.688,396.749c14.351,0,25.831,11.48,25.831,25.83s-11.48,25.831-25.831,25.831-25.83-11.48-25.83-25.831,11.48-25.83,25.83-25.83ZM5800.688,454.15c14.351,0,25.831,11.479,25.831,25.83s-11.48,25.83-25.831,25.83-25.83-11.48-25.83-25.83,11.48-25.83,25.83-25.83ZM5800.688,511.551c14.351,0,25.831,11.479,25.831,25.83s-11.48,25.83-25.831,25.83-25.83-11.48-25.83-25.83,11.48-25.83,25.83-25.83ZM5858.089,339.349c14.35,0,25.83,11.48,25.83,25.83s-11.48,25.83-25.83,25.83-25.831-11.479-25.831-25.83,11.48-25.83,25.831-25.83ZM5858.089,396.749c14.35,0,25.83,11.48,25.83,25.83s-11.48,25.831-25.83,25.831-25.831-11.48-25.831-25.831,11.48-25.83,25.831-25.83ZM5858.089,454.15c14.35,0,25.83,11.479,25.83,25.83s-11.48,25.83-25.83,25.83-25.831-11.48-25.831-25.83,11.48-25.83,25.831-25.83ZM5858.089,511.551c14.35,0,25.83,11.479,25.83,25.83s-11.48,25.83-25.83,25.83-25.831-11.48-25.831-25.83,11.48-25.83,25.831-25.83ZM5858.089,293.429c8.035,0,14.35,6.314,14.35,14.35s-6.314,14.35-14.35,14.35-14.351-6.314-14.351-14.35,6.314-14.35,14.351-14.35ZM5915.489,511.551c14.35,0,25.83,11.479,25.83,25.83s-11.48,25.83-25.83,25.83-25.83-11.48-25.83-25.83,11.479-25.83,25.83-25.83ZM5915.489,293.429c8.036,0,14.35,6.314,14.35,14.35s-6.313,14.35-14.35,14.35-14.351-6.314-14.351-14.35,6.314-14.35,14.351-14.35ZM5972.89,281.949c14.35,0,25.83,11.48,25.83,25.83s-11.48,25.83-25.83,25.83-25.83-11.48-25.83-25.83,11.479-25.83,25.83-25.83ZM5972.89,511.551c14.35,0,25.83,11.479,25.83,25.83s-11.48,25.83-25.83,25.83-25.83-11.48-25.83-25.83,11.479-25.83,25.83-25.83ZM6030.29,293.429c8.036,0,14.35,6.314,14.35,14.35s-6.313,14.35-14.35,14.35-14.351-6.314-14.351-14.35,6.314-14.35,14.351-14.35ZM6030.29,350.829c8.036,0,14.35,6.314,14.35,14.35s-6.313,14.351-14.35,14.351-14.351-6.314-14.351-14.351,6.314-14.35,14.351-14.35Z" fill="#231f20"/></g><g mask="url(#mask)"><g id="Expanded_Art"><path d="M2276.22-8.504v742.677H-8.504V-8.504h2284.724ZM47.275,228.839v58.905l-13.387-25.272c3.91,38.727-10.609,86.177,13.387,119.243v62.189l-13.387-27.544c4.782,37.131-11.769,101.404,13.387,130.799v140.178h218.655c12.218,12.917,45.33,31.43,44.624,0h42.638c0,36.619,49.901,3.341,49.901,0h1817.349V38.332H384.328c-8.541-4.819-26.297-11.743-32.762,0h-41.011c-7.001-11.597-21.884-5.569-31.236,0H47.275v138.111c-18.388,15.044-17.247,37.349,0,52.397Z" fill="#fff"/><path d="M353.192,687.338h49.901c0,3.341-49.901,36.619-49.901,0Z" fill="url(#linear-gradient-14)"/><path d="M47.275,287.745v93.972c-23.996-33.066-9.477-80.516-13.387-119.243l13.387,25.272Z" fill="url(#linear-gradient-15)"/><path d="M265.931,687.338h44.624c.707,31.43-32.406,12.917-44.624,0Z" fill="url(#linear-gradient-16)"/><path d="M47.275,443.905v103.255c-25.156-29.395-8.605-93.667-13.387-130.799l13.387,27.544Z" fill="url(#linear-gradient-17)"/><path d="M47.275,176.442v52.397c-17.247-15.048-18.388-37.353,0-52.397Z" fill="url(#linear-gradient-18)"/><path d="M384.328,38.332h-32.762c6.465-11.743,24.221-4.819,32.762,0Z" fill="url(#linear-gradient-19)"/><path d="M310.554,38.332h-31.236c9.352-5.569,24.235-11.597,31.236,0Z" fill="url(#linear-gradient-20)"/></g></g></g></g></svg>